<?xml version="1.0" encoding="UTF-8"?>
<svg id="Layer_1" data-name="Layer 1" xmlns="http://www.w3.org/2000/svg" viewBox="0 0 894.05 792.91">
  <defs>
    <style>
      .cls-1 {
        stroke: #b77b5a;
      }

      .cls-1, .cls-2, .cls-3, .cls-4, .cls-5, .cls-6, .cls-7, .cls-8, .cls-9, .cls-10, .cls-11, .cls-12, .cls-13, .cls-14, .cls-15, .cls-16, .cls-17, .cls-18, .cls-19, .cls-20, .cls-21, .cls-22, .cls-23, .cls-24, .cls-25, .cls-26, .cls-27, .cls-28, .cls-29, .cls-30, .cls-31, .cls-32, .cls-33, .cls-34, .cls-35, .cls-36, .cls-37, .cls-38, .cls-39, .cls-40, .cls-41, .cls-42, .cls-43, .cls-44, .cls-45, .cls-46, .cls-47, .cls-48, .cls-49, .cls-50 {
        fill: none;
        stroke-width: 2px;
      }

      .cls-2 {
        stroke: #d0cfe8;
      }

      .cls-3 {
        stroke: #8f8285;
      }

      .cls-4 {
        stroke: #dca989;
      }

      .cls-51 {
        fill: #c9906d;
      }

      .cls-5 {
        stroke: #e5c8b7;
      }

      .cls-52 {
        fill: #ca916e;
      }

      .cls-6 {
        stroke: #dabfc0;
      }

      .cls-7 {
        stroke: #eab99a;
      }

      .cls-8 {
        stroke: #fbecdc;
      }

      .cls-9 {
        stroke: #c7b0ba;
      }

      .cls-10 {
        stroke: #dba787;
      }

      .cls-11 {
        stroke: #b5989f;
      }

      .cls-12 {
        stroke: #e2c1ab;
      }

      .cls-13 {
        stroke: #fffbf8;
      }

      .cls-14 {
        stroke: #be7f5a;
      }

      .cls-15 {
        stroke: #f6e0d2;
      }

      .cls-16 {
        stroke: #dda582;
      }

      .cls-17 {
        stroke: #c8a8a6;
      }

      .cls-18 {
        stroke: #9893a3;
      }

      .cls-19 {
        stroke: #977f79;
      }

      .cls-20 {
        stroke: #b6989f;
      }

      .cls-21 {
        stroke: #e4c8b6;
      }

      .cls-22 {
        stroke: #d1b2a2;
      }

      .cls-23 {
        stroke: #e3dce7;
      }

      .cls-24 {
        stroke: #b67b59;
      }

      .cls-53 {
        fill: #c7c0de;
      }

      .cls-25 {
        stroke: #afaab1;
      }

      .cls-26 {
        stroke: #f6dcca;
      }

      .cls-27 {
        stroke: #fdf8f3;
      }

      .cls-28 {
        stroke: #c89273;
      }

      .cls-29 {
        stroke: #aa6946;
      }

      .cls-54 {
        fill: #ecbc9d;
      }

      .cls-30 {
        stroke: #cb8d66;
      }

      .cls-31 {
        stroke: #cf9674;
      }

      .cls-55 {
        fill: #304366;
      }

      .cls-32 {
        stroke: #2c304c;
      }

      .cls-33 {
        stroke: #90787d;
      }

      .cls-56 {
        fill: #cd895f;
      }

      .cls-57 {
        fill: #605c71;
      }

      .cls-58 {
        fill: #fff;
      }

      .cls-59 {
        fill: #a36545;
      }

      .cls-60 {
        fill: #424255;
      }

      .cls-34 {
        stroke: #b4b0d7;
      }

      .cls-35 {
        stroke: #c9a9a6;
      }

      .cls-36 {
        stroke: #9997aa;
      }

      .cls-61 {
        fill: #ecbea1;
      }

      .cls-37 {
        stroke: #866a62;
      }

      .cls-38 {
        stroke: #c7afb9;
      }

      .cls-39 {
        stroke: #dba888;
      }

      .cls-40 {
        stroke: #494663;
      }

      .cls-62 {
        fill: #322f55;
      }

      .cls-41 {
        stroke: #826f73;
      }

      .cls-42 {
        stroke: #dba786;
      }

      .cls-63 {
        fill: #faf0e7;
      }

      .cls-64 {
        fill: #161d42;
      }

      .cls-65 {
        fill: #e6b190;
      }

      .cls-66 {
        fill: #a19fd0;
      }

      .cls-67 {
        fill: #edc0a4;
      }

      .cls-43 {
        stroke: #e3e0ef;
      }

      .cls-44 {
        stroke: #e2dce4;
      }

      .cls-45 {
        stroke: #dda480;
      }

      .cls-68 {
        fill: #b16d46;
      }

      .cls-46 {
        stroke: #979dab;
      }

      .cls-69 {
        fill: #f8e0c7;
      }

      .cls-47 {
        stroke: #a78e8b;
      }

      .cls-48 {
        stroke: #dac0c1;
      }

      .cls-49 {
        stroke: #48506c;
      }

      .cls-70 {
        fill: #c6c0d8;
      }

      .cls-50 {
        stroke: #514f63;
      }
    </style>
  </defs>
  <g>
    <path class="cls-8" d="M697.8,137.84c-.86,5.14,5.79,5.62,9.82,5.47,30.19-1.14,55.24-25.14,60.77-54.57,4.58-24.31-1.31-47.03-18.1-65.16-12.23-13.22-29.04-20.7-46.94-22.37-5.89-.56-14.17-.1-19.7,2.48-.51.24-.88.71-1,1.26-.58,2.69.17,4.68,2.25,5.98,5.11,3.21,9.06,5.8,11.83,7.78,20.71,14.84,32.08,38.71,30.17,64.06-1.61,21.43-10.77,38.9-27.46,52.39-.92.75-1.47,1.65-1.64,2.68" vector-effect="non-scaling-stroke"/>
    <path class="cls-25" d="M220.64,224.42c.31.18.46.39.46.62" vector-effect="non-scaling-stroke"/>
    <path class="cls-18" d="M221.1,225.04c-1.41,1.86-2.5,3.92-3.27,6.19-4.15,12.3-4.89,24.83-2.23,37.59" vector-effect="non-scaling-stroke"/>
    <path class="cls-13" d="M215.6,268.82c-9.27-.02-17.89,2.17-27.35,3.96-5.41,1.03-10.22,2.03-14.43,3.01-13.2,3.05-20.89,4.85-23.07,5.4-23.39,5.87-45.51,13.91-66.44,24.56-8.65,4.39-13.18,6.7-13.59,6.91-3.13,1.61-8.53,5.08-16.2,10.41-.31.21-.68.29-1.05.22-2.79-.57-5.03-1.24-6.73-1.99-10.01-4.47-20.65-5.91-31.92-4.34-5.59.77-9.67,2.66-12.05,7.5-3.34,6.83-1.47,12.32,1.69,19.74,3.31,7.81,7.55,14.77,12.72,20.88,5.07,5.99,10.31,10.58,8.97,16.76-1.43,6.57-3.23,15.34-5.4,26.31-3.07,15.57-3.66,31.77-3.58,48,.03,5.01.47,11.97,1.32,20.9,1.16,12.05,2.08,26.06,4.93,38.2,3.16,13.41,6.34,26.97,9.54,40.68.73,3.11,1.47,5.61,2.24,7.52,2.55,6.31,5.07,12.61,7.58,18.92,1.77,4.45,5.72,12.77,11.85,24.96,2.44,4.85,5.15,9.34,8.14,13.45,5.16,7.12,9.89,15.22,15.45,22.06,3.66,4.5,7.53,10.89,12.18,15.23,5.7,5.31,10.71,10.72,14.67,15.55.29.35.32.85.09,1.25-6.81,11.57-11.62,23.68-11.25,37.48.21,7.94,4.18,17.38,12.91,18.62,6.92.99,13.69-.09,20.32-3.23,4.33-2.05,9.26-5.72,14.47-7.36.42-.13.86.09,1,.51,0,.02.01.03.01.05,1.74,6.75,4.23,15.88,8.1,21.27,4.29,5.96,8.49,10.87,15.04,14.82,10.88,6.57,22.68,12.35,34.95,15.35,5.73,1.4,18.37,5.44,27.78,7.17,11.13,2.05,17.22,3.79,28.98,4.97,2.81.29,8.68,1.13,17.61,2.52.81.13,8.33,1.07,22.54,2.84,8.7,1.09,16.94.89,25.52,1.43,6.83.43,13.23.62,19.19.59,26.15-.13,51.65-2.34,76.52-6.62,5.95-1.02,12.11-2.3,18.5-3.83,9.87-2.37,15.98-3.91,18.32-4.62,6.89-2.09,18.46-5.91,34.72-11.47,10.14-3.47,17.69-7.65,28.02-12.07,6.23-2.67,13.04-6.11,20.42-10.31,22.65-12.9,39.16-22.72,49.54-29.45,9.94-6.45,21.24-13.89,33.91-22.32,2.74-1.82,8.65-5.25,12.3-7.72,12.53-8.5,25.3-17.42,37.57-24.61,8.57-5.03,15.14-8.64,19.7-10.83,13.62-6.55,22.11-10.73,25.47-12.55,1.89-1.03,3.39-1.7,4.51-2.02,12.59-3.65,27.65-9.45,41.4-11.2,10.23-1.31,24.67-3.12,37.69-3.43,12.39-.3,21.35-.26,26.88.11,13.73.91,21.07,1.4,22.01,1.45,16.49.95,32.22-.56,40.25-16.85,3.18-6.45,3.5-12.43,2.47-19.93-.73-5.31-1.86-10.17-3.37-14.58-3.35-9.8-10.14-18.08-17.23-26.44-2.97-3.51-7.2-7.17-12.69-10.98-17.79-12.33-36.92-20.48-58.03-25.87-5.06-1.29-9.49-2.42-13.3-3.39" vector-effect="non-scaling-stroke"/>
    <path class="cls-23" d="M787.91,502.37c-4.01-9.01-8.25-17.57-12.72-25.69-15.63-28.38-32.54-55.46-52.48-79.99-12.26-15.09-25.42-28.81-39.48-41.18-19.01-16.72-39.33-30.29-61.77-38.32-5.56-1.99-12.14-3.58-19.74-4.78" vector-effect="non-scaling-stroke"/>
    <path class="cls-26" d="M601.72,312.41c1-8.39,1.51-16.87,1.53-25.45,0-.77.37-1.5,1-1.95,13.53-9.83,22.78-23.05,27.73-39.66,5.1-17.08,5.52-34.49,1.26-52.24-3.7-15.41-13.56-33.82-29.8-38.24-1.47-.4-2.91-.85-4.33-1.36" vector-effect="non-scaling-stroke"/>
    <path class="cls-46" d="M599.11,153.51c-3.18-17.87-12.84-34.95-23.92-49.08-1.23-1.57-2.61-3.03-4.12-4.37" vector-effect="non-scaling-stroke"/>
    <path class="cls-25" d="M571.07,100.06c.09-.51.35-.82.78-.92" vector-effect="non-scaling-stroke"/>
    <path class="cls-18" d="M571.85,99.14c5.48-2.51,10.46-7.62,9.32-13.91-1.31-7.21-11.32-12.64-17.98-15.32-5.42-2.18-11.2-3.82-17.33-4.93-.48-.09-.84-.49-.88-.97-.68-8.37-4.17-14.45-10.48-18.24-8.96-5.39-20.17-4.61-28.65,1.57-.25.18-.59.17-.82-.03-2.96-2.61-6.48-4.91-10.57-6.88-23.29-11.22-50.31-11.93-76.11-8.88-15.18,1.79-28.58,4.48-40.21,8.06-44.15,13.59-79,39.77-104.56,78.52-.83,1.25-1.89,2.34-3.12,3.19-23.44,16.23-44.06,37.28-55.15,63.65-3.69,8.78-5.9,17.3-6.62,25.57-.79,9.13,1.15,16.06,11.95,13.88" vector-effect="non-scaling-stroke"/>
    <path class="cls-40" d="M571.85,99.14c-.26.05-.44-.02-.55-.22-.07-.14-.03-.3.1-.38,0,0,0,0,0,0,3.25-1.75,5.61-3.63,7.08-5.65,4.21-5.82.74-12.55-4.69-16.35-7.93-5.54-17.46-8.62-27.43-10.66-1.04-.21-1.87-1.02-2.09-2.07-.31-1.46-.71-4.3-1.47-6.35-5.8-15.66-23.7-17.81-36.49-9.54-.56.36-1.29.31-1.8-.11-3.25-2.71-7.05-5.04-11.38-7.01-7.75-3.52-15.18-5.87-22.3-7.05-6.89-1.15-12-2.28-18.05-2.46-11.31-.35-19.79-.2-25.44.43-6,.66-12.17.83-17.29,2.04-4.31,1.01-8.68,1.27-13.48,2.36-5.45,1.24-10.26,2.39-14.44,3.45-4.04,1.03-11.11,3.47-21.21,7.34-12.69,4.85-26.25,12.44-40.68,22.77-2.59,1.86-4.44,3.34-5.55,4.44-2.27,2.25-4.02,3.84-5.26,4.77-5.44,4.08-8.56,7.78-13.91,13.07-1.71,1.69-3.54,3.84-5.51,6.44-1.61,2.14-3.57,4.45-5.87,6.94-.89.96-4.29,5.64-10.22,14.04-1,1.41-2.07,2.5-3.21,3.27-5.8,3.93-11.07,8-15.81,12.19-8.21,7.28-16.87,15.52-23.37,24.42-3.94,5.39-6.71,9.43-8.32,12.1-6.45,10.75-10.73,22.31-12.85,34.68-.57,3.32-1.48,12.08.22,14.58,2.45,3.6,5.18,3.18,9.31,2.95.27-.02.52.15.6.41l.14.44" vector-effect="non-scaling-stroke"/>
    <path class="cls-49" d="M571.07,100.06c-.27-.03-.46.05-.55.22-.09.17-.03.34.16.52,5.67,5.19,9.42,11.48,14.26,19.11,4.71,7.43,8.65,16.42,11.82,26.99.56,1.86.89,3.58,1,5.15.02.31-.22.59-.54.61,0,0-.01,0-.02,0-5.31.12-10.53,1.83-15.67,5.14-1.08.69-3.4,2.43-6.95,5.21-.83.65-3.2,3.3-7.1,7.93-4.98,5.92-8.97,13.95-11.87,20.81-.23.56-.8.9-1.41.85-8.59-.76-17.96-1.51-26.46-3.55-12.41-2.97-22.86-6.27-31.33-9.9-15.91-6.81-31.54-16.09-46.9-27.86-8.76-6.71-18.71-14.76-29.85-24.13-1.51-1.27-4.86-3.96-10.07-8.09-3.41-2.71-6.68-5.44-9.8-8.21-.29-.25-.59-.27-.91-.07-.11.07-.18.2-.21.39" vector-effect="non-scaling-stroke"/>
    <path class="cls-47" d="M398.67,111.18c-.6.21-.92.76-.96,1.65" vector-effect="non-scaling-stroke"/>
    <path class="cls-49" d="M397.71,112.83c-.09-.9-.39-.83-.9.2-.09.19-.15.38-.2.58-2.45,10.72-4.7,18.89-6.74,24.5-.71,1.97-2.05,5.53-4,10.68-3.99,10.52-9.32,20.27-15.98,29.24-5.13,6.92-11.26,12.45-18.38,16.6-.55.31-2.07.85-4.56,1.62-6.16,1.89-9.6-4.84-11.28-9.4-.06-.15-.23-.23-.39-.17-.09.03-.15.1-.17.19l-.11.43" vector-effect="non-scaling-stroke"/>
    <path class="cls-47" d="M335,187.3l-.97-2.8c-.07-.21-.3-.32-.51-.25-.08.03-.15.08-.2.16-.15.23-.15.44,0,.64" vector-effect="non-scaling-stroke"/>
    <path class="cls-49" d="M333.32,185.05c-.07-.08-.14-.15-.21-.2-.15-.12-.37-.09-.49.06-.03.03-.05.07-.06.11-3.15,9.61-5.46,16.46-6.95,20.57-4.27,11.78-9.98,23.16-17.13,34.15-.17.27-.36.51-.59.72-2.3,2.17-4.03,5.09-6.1,6.95-3.75,3.35-7.45,5.82-11.12,7.4-4.38,1.89-10.12.45-11.17-4.93-.69-3.5-.85-7-.5-10.49.02-.22-.14-.42-.36-.44-.05,0-.11,0-.16.02-.13.04-.26.13-.37.26" vector-effect="non-scaling-stroke"/>
    <path class="cls-47" d="M278.11,239.23c0-.41-.08-.73-.22-.96-.19-.33-.43-.39-.71-.17-.19.15-.33.41-.4.78" vector-effect="non-scaling-stroke"/>
    <path class="cls-40" d="M276.78,238.88c-.33-.39-.57-.44-.72-.17-4.81,8.72-10.27,16.75-16.4,24.1-2.82,3.38-7.79,7.8-14.91,13.26-.27.21-.56.37-.88.49-1.11.4-2.63,1.13-4.56,2.19-2.52,1.38-5.37,2.32-8.56,2.82-6.97,1.09-12.03-4.98-13.68-11.46-2.61-10.26-2.73-20.84-.35-31.74.9-4.11,2.47-8.26,4.72-12.46.23-.44.12-.73-.34-.87" vector-effect="non-scaling-stroke"/>
    <path class="cls-36" d="M242.99,277.94c-8.08,4.54-18.02,8.37-24.2-1.62-1.42-2.29-2.48-4.79-3.19-7.5" vector-effect="non-scaling-stroke"/>
    <path class="cls-3" d="M599.11,153.51c-22.35.81-34.83,20.68-43.02,38.94-.25.57-.83.92-1.45.89-39.72-1.68-76.35-18.11-107.3-42.54-17.36-13.7-32.29-26.62-48.67-39.62" vector-effect="non-scaling-stroke"/>
    <path class="cls-48" d="M601.72,312.41c-.48.93-.68,2.14-.59,3.62" vector-effect="non-scaling-stroke"/>
    <path class="cls-9" d="M601.13,316.03c-4.29,27.95-14.39,54.62-29.75,78.34" vector-effect="non-scaling-stroke"/>
    <path class="cls-48" d="M571.38,394.37c-7.88,11.56-16.11,21.4-24.68,29.52-4.43,4.19-7.33,7.01-8.71,8.46" vector-effect="non-scaling-stroke"/>
    <path class="cls-9" d="M537.99,432.35c-5.98,4.94-11.79,9.95-18.04,14.29-6.68,4.63-11.85,8.05-15.51,10.24-19.44,11.65-40.46,19.5-63.07,23.56" vector-effect="non-scaling-stroke"/>
    <path class="cls-48" d="M441.37,480.44c-11.15,1.58-20.66,2.39-28.52,2.42-9.53.03-19.75-1.11-30.68-3.42-1.92-.41-4.71-1.23-8.36-2.47-2.71-.92-5.51-1.72-8.42-2.39" vector-effect="non-scaling-stroke"/>
    <path class="cls-4" d="M365.39,474.58c-7.55-12.59-17.64-23.18-30.29-31.75-7.11-4.81-14.57-8.36-22.39-10.65-2.13-.62-4.86-1.21-8.19-1.77" vector-effect="non-scaling-stroke"/>
    <path class="cls-15" d="M304.52,430.41c.26-.37.31-.66.14-.87-2.71-3.5-5.17-7.17-7.36-11.01-2.61-4.59-4.74-8.04-6.38-10.37-1.75-2.5-4.12-6.36-7.1-11.59-20.21-35.53-34.29-73.51-40.73-114.17-.1-.62-.07-1.37.1-2.24.21-1.05.14-1.79-.2-2.22" vector-effect="non-scaling-stroke"/>
    <path class="cls-33" d="M242.99,277.94c8.83-5.72,16.38-12.84,22.64-21.37,3.87-5.27,7.59-11.17,11.15-17.69" vector-effect="non-scaling-stroke"/>
    <path class="cls-3" d="M278.11,239.23c-.76,4.54-.52,12.35,3.26,15.43,3.5,2.85,9.11,1.56,12.65-.47,5.35-3.06,9.98-7.26,13.9-12.59,12.1-16.45,20.4-38.73,25.4-56.55" vector-effect="non-scaling-stroke"/>
    <path class="cls-3" d="M335,187.3c1.19,4.46,5.29,10.89,10.7,10.1,6.13-.89,12.65-5.71,17.03-10,9.07-8.9,16.39-20.81,21.43-32.07,6.11-13.65,10.63-27.82,13.55-42.5" vector-effect="non-scaling-stroke"/>
    <path class="cls-5" d="M304.52,430.41l-8.04-1c-.3-.03-.52-.3-.49-.61.5-5.5.62-10.39-2.44-15.38-4.91-7.99-12.16-12.73-21.76-14.2-15.16-2.33-28.43,7.37-33.41,21.28-2.71,7.59-3.64,15.11,1.45,21.78.21.27.16.66-.11.87,0,0,0,0-.01,0-13.89,10.09-25.45,22.3-34.69,36.63" vector-effect="non-scaling-stroke"/>
    <path class="cls-27" d="M205.02,479.79c-11.31-17.06-26.37-32.64-43.84-43.4-5.37-3.31-9.54-5.77-12.53-7.38-9.82-5.32-21.1-9.58-32.61-11.62-1.83-.32-3.61.79-4.13,2.58l-.04.13c-.5,1.75.51,3.58,2.26,4.08,4.95,1.42,9.06,2.34,13.52,4.05,16.4,6.29,31.78,14.89,44.53,26.45,4.94,4.48,11.26,10.08,16.08,16.2,3.09,3.91,7.14,9.48,12.15,16.71" vector-effect="non-scaling-stroke"/>
    <path class="cls-5" d="M200.41,487.59c-3.99,6.93-7.4,14.36-10.23,22.28-.16.44-.63.68-1.08.55-9.21-2.78-18.01-1.69-26.4,3.28-11.58,6.85-16.61,20.11-15.73,33.2.71,10.7,5.25,18.85,13.62,24.44,7.45,4.98,16.75,5.74,24.95,2.53.46-.18.97.05,1.15.5.01.04.03.08.04.12,7.38,30.01,29.75,54.24,60.65,59.2,3.82.61,7.92,1,12.31,1.17.15,0,.29.04.42.1l.79.34" vector-effect="non-scaling-stroke"/>
    <path class="cls-22" d="M260.9,635.3l-1.61,4.93" vector-effect="non-scaling-stroke"/>
    <path class="cls-21" d="M259.29,640.23c-1.13,1.79-2.1,3.65-2.91,5.59-2.3,5.5-4.34,11.97-6.12,19.4-2.22,9.23-3.59,19.11-4.1,29.63-.75,15.65-.19,37.4,14.07,47.23,6.07,4.18,12.43,4.4,19.09.66.35-.2.67-.45.95-.74,4.63-4.87,7.88-9.83,9.77-14.87,5.03-13.48,8.88-27.96,11.55-43.43.01-.1.11-.18.21-.17.06,0,.12.05.15.11,15.65,28.79,40.61,55.48,76.4,56.48,19.92.56,37.78-4.77,53.57-16,5.6-3.98,12.04-9.65,19.32-17.02" vector-effect="non-scaling-stroke"/>
    <path class="cls-43" d="M451.24,707.1c17.7-.08,35.23-2.48,52.59-7.19,14.47-3.93,28.72-9.3,42.75-16.1,24.2-11.72,46.56-28.51,64.08-48.94,7.4-8.65,14.4-18.83,21.01-30.56,13.11-23.28,22.21-48.48,27.31-75.6.78-4.14,1.26-7.65,1.45-10.54" vector-effect="non-scaling-stroke"/>
    <path class="cls-2" d="M660.43,518.17l.6-5.17c.03-.22.1-.43.21-.63.34-.59.65-.77.93-.54" vector-effect="non-scaling-stroke"/>
    <path class="cls-43" d="M662.17,511.83c18.27-5.47,34.68-9.11,49.24-10.92,9.36-1.17,21.97-1.85,37.84-2.05,6.79-.09,14.08.85,21.6,1.2,3.45.16,9.13.93,17.06,2.31" vector-effect="non-scaling-stroke"/>
    <path class="cls-20" d="M457.32,575.16c-10.79,7.47-22.44,12.57-34.95,15.3-5.01,1.09-12.36,3.67-9.01,10.65" vector-effect="non-scaling-stroke"/>
    <path class="cls-39" d="M413.36,601.11c-5.61-1.17-10.96-2.52-16.03-4.06-13.63-4.13-26.03-10.56-37.18-19.29-.15-.11-.36-.1-.48.04l-11.63,13.15" vector-effect="non-scaling-stroke"/>
    <path class="cls-1" d="M348.04,590.95l-1.49-6.67c-.13-.57-.7-.93-1.27-.8-.26.06-.49.22-.64.44-1.24,1.84-2.38,3.33-3.41,4.48-2.14,2.39-6.99,7.32-14.54,14.81-3.46,3.43-7.81,6.35-10.38,9.33-.19.22-.46.36-.75.37-.01,0-2.07,1.38-6.16,4.14-3.43,2.31-7.78,4.96-13.03,7.93-5.19,2.93-9.79,5.06-13.82,6.39-6.99,2.32-14.21,3.63-21.65,3.93" vector-effect="non-scaling-stroke"/>
    <path class="cls-12" d="M200.41,487.59l4.61-7.8" vector-effect="non-scaling-stroke"/>
    <path class="cls-34" d="M662.17,511.83l-.14-33.54c0-.66-.34-1.28-.9-1.63-2.06-1.3-3.84-1.08-5.34.66-.36.42-.56.96-.55,1.51.11,12.1-.02,23.26-.41,33.49-.09,2.6.98,4.07,3.21,4.4,1.22.18,1.4.92,2.39,1.45" vector-effect="non-scaling-stroke"/>
    <path class="cls-17" d="M451.24,707.1c-2.45-.31-4.76-.76-6.91-1.33-3.19-.86-5.58-2.7-7.18-5.51" vector-effect="non-scaling-stroke"/>
    <path class="cls-34" d="M437.15,700.26c3.54.37,5.19-1.07,4.94-4.3-.03-.32-.11-.64-.24-.94-3.41-7.88-7.06-15.1-9.91-23.42-7.09-20.75-11.37-43.12-11.22-65.45.02-4.24-3.33-5.52-6.92-4.42" vector-effect="non-scaling-stroke"/>
    <path class="cls-6" d="M413.8,601.73l-.45-1.02" vector-effect="non-scaling-stroke"/>
    <path class="cls-34" d="M413.35,600.71c11.35-1.52,21.95-4.74,31.79-9.65,1.58-.79,4.55-2.35,8.92-4.7,9.78-5.26,18.51-12.94,26.69-20.85,6.79-6.56,13.63-15.46,18.43-22.63,5.61-8.38,10.64-17.76,15.1-28.14,3.87-9,6.7-17.66,8.5-25.98.49-2.25.71-3.96.67-5.13-.04-1.15-.87-2.11-2-2.32-2.71-.51-4.32.33-4.81,2.51-2.34,10.39-6.08,21.81-10.88,31.95-2.82,5.94-4.47,9.35-4.96,10.23-6.75,12.16-14.96,23.36-24.62,33.6-5.29,5.61-11.58,10.8-18.86,15.56" vector-effect="non-scaling-stroke"/>
    <path class="cls-35" d="M457.32,575.16c-6.85-8.33-14.8-15.27-23.83-20.81-.13-.08-.17-.24-.09-.37.05-.08.14-.13.23-.13,1.56-.02,2.8-.08,3.71-.17,13.48-1.45,28.21-6.13,39.69-14.21,4.23-2.97,7.19-6.57,8.9-10.8,4.47-11.09-5.75-21.28-15.14-25.7-9.75-4.58-21.13-6.65-32.18-5.8-5.59.43-9.12.76-10.58.99-17.71,2.77-35.04,8.32-52.01,16.64-.27.13-.59.02-.72-.24-.04-.08-.06-.16-.06-.25.09-13.64-3.19-26.88-9.85-39.73" vector-effect="non-scaling-stroke"/>
    <path class="cls-34" d="M441.37,480.44c2.58,1.95,4.51,3.13,5.78,3.55,10.97,3.67,22.37,4.44,34.2,2.31,11.72-2.11,21.89-6.44,30.51-12.99,1.7-1.29,3.07-2.44,4.12-3.44,3.62-3.46,6.63-5.75,9.31-9.55,5.1-7.25,8.72-15.27,10.87-24.06.07-.3.22-.57.42-.79,1.01-1.11,1.48-2.15,1.41-3.12" vector-effect="non-scaling-stroke"/>
    <path class="cls-34" d="M571.38,394.37c4.14-3.09,7.79-6.62,10.95-10.59,15.65-19.65,22.16-42.11,19.53-67.36-.02-.18-.1-.32-.23-.43-.18-.15-.35-.13-.5.04" vector-effect="non-scaling-stroke"/>
    <path class="cls-30" d="M303.91,635.3c-.27-.53-.63-.59-1.08-.19-.37.33-.55.73-.54,1.19.04,1.82-.14,3.56-.55,5.22-.07.28,0,.58.19.81.31.37.61.34.89-.07" vector-effect="non-scaling-stroke"/>
    <path class="cls-30" d="M308.66,662.17c-1.63.39-1.81-1.06-3.13-1.2-2.83-.29-4.55,3.25-3.01,5.15,2.18,2.69,4.94,4.85,8.29,6.46" vector-effect="non-scaling-stroke"/>
    <path class="cls-1" d="M347.97,592.64c-3.73,3.53-7.25,7.22-10.57,11.09-2.89,3.36-6.09,5.98-9.32,9.05" vector-effect="non-scaling-stroke"/>
    <path class="cls-29" d="M328.08,612.78c-1.91.62-3.57,1.98-4.99,4.07-.16.24-.38.45-.63.61l-3.37,2.25" vector-effect="non-scaling-stroke"/>
    <path class="cls-1" d="M317.29,620.2l-8.94.54c-.32.02-.61.18-.8.43-1.34,1.82-1.77,3.95-1.28,6.39" vector-effect="non-scaling-stroke"/>
    <path class="cls-24" d="M304.78,630.03l-2.01.72c-.51.19-1,.44-1.45.75-8.73,5.98-18.34,9.78-28.83,11.4-4.64.71-8.67.59-12.1-.36-1-.28-1.37-1.05-1.1-2.31" vector-effect="non-scaling-stroke"/>
    <path class="cls-38" d="M413.35,600.71c0,.13,0,.27.01.4" vector-effect="non-scaling-stroke"/>
    <path class="cls-38" d="M413.8,601.73c-.32,33.52,6.76,65.18,21.23,94.99" vector-effect="non-scaling-stroke"/>
    <path class="cls-10" d="M435.03,696.72c-17.49,8.53-35.76,12.94-54.79,13.25-10.15.16-19.33-.84-27.54-3.01-8.95-2.37-17.46-5.94-25.55-10.72-3.79-2.24-7.1-4.94-9.91-8.09-4.06-4.54-6.2-9.73-6.43-15.57" vector-effect="non-scaling-stroke"/>
    <path class="cls-45" d="M310.81,672.58c14.21,4.89,27.79,8.74,42.81,9.57,1.38.07,2.56-.97,2.66-2.35l.03-.37c.1-1.44-.95-2.7-2.38-2.86-10.38-1.19-20.57-2.58-31.3-5.86-5.93-1.81-10.23-3.73-13.97-8.54" vector-effect="non-scaling-stroke"/>
    <path class="cls-10" d="M308.66,662.17c-5.62-5.19-7.57-11.82-5.84-19.91" vector-effect="non-scaling-stroke"/>
    <path class="cls-45" d="M302.82,642.26c5.21,2.45,9.58,4.11,13.13,4.98,9.06,2.22,19.38,3.01,30.95,2.37,1.48-.08,2.62-1.34,2.55-2.82v-.13c-.08-1.52-1.34-2.71-2.86-2.69-13.7.19-24.03-.26-34.4-3.74-2.75-.93-5.51-2.57-8.28-4.93" vector-effect="non-scaling-stroke"/>
    <path class="cls-10" d="M303.91,635.3l.87-5.27" vector-effect="non-scaling-stroke"/>
    <path class="cls-28" d="M304.78,630.03c.43-1.13.92-1.96,1.49-2.47" vector-effect="non-scaling-stroke"/>
    <path class="cls-39" d="M306.27,627.56l11.02-7.36" vector-effect="non-scaling-stroke"/>
    <path class="cls-28" d="M317.29,620.2l1.8-.49" vector-effect="non-scaling-stroke"/>
    <path class="cls-31" d="M319.09,619.71c2.09-.05,4.16-.25,6.21-.58,2.79-.46,4.85-.73,6.16-.81,6.74-.43,13.45-.77,20.12-1.01" vector-effect="non-scaling-stroke"/>
    <path class="cls-39" d="M351.58,617.31c2.93.14,5.77-.16,8.52-.89.69-.18,1.15-.43,1.38-.75.69-.94.54-2.25-.34-3.01-6.35-5.53-10.74-12.2-13.17-20.02" vector-effect="non-scaling-stroke"/>
    <path class="cls-28" d="M347.97,592.64c-.07-.63-.04-1.19.07-1.69" vector-effect="non-scaling-stroke"/>
    <path class="cls-11" d="M437.15,700.26l-2.12-3.54" vector-effect="non-scaling-stroke"/>
    <path class="cls-14" d="M351.58,617.31l3.2-2.28c.64-.46.79-1.35.34-1.99-.16-.22-.37-.39-.62-.49-1.81-.74-3.82-1.02-6.02-.84-6.61.53-13.41.89-20.4,1.07" vector-effect="non-scaling-stroke"/>
    <path class="cls-44" d="M152.17,52.3c-5.17,2.4-7.3,8.8-4.76,14.29s8.81,7.99,13.98,5.59c0,0,0,0,0,0,5.17-2.4,7.3-8.8,4.76-14.29-2.55-5.49-8.81-7.99-13.98-5.59,0,0,0,0,0,0" vector-effect="non-scaling-stroke"/>
    <path class="cls-8" d="M663.82,86.92c.6-.92.34-2.15-.58-2.76-.28-.19-.61-.3-.95-.32-2.56-.18-6.56-.89-7.18-3.31-.92-3.67-1.28-5.67-2.95-8.08-1.52-2.2-3.73-.7-4.71,1-.84,1.47-1.66,3.28-2.46,5.44-.46,1.22-1.49,2.14-2.75,2.47-2.28.58-9.82,2.54-6.46,6.15,1.55,1.66,2.94,3.07,4.17,4.24.22.21.41.47.54.75.53,1.14.64,2.24.35,3.29-.75,2.67-1.04,5.23-.88,7.69.08,1.14.76,2.08,1.7,2.35,2.02.56,3.32-1.51,4.84-3.56.77-1.04,2.18-1.35,3.32-.74l5.85,3.15c.98.53,2.2.16,2.72-.82.02-.04.04-.08.06-.11.28-.52.34-1.43.18-2.73-.53-4.09-1.69-7.56.77-9.48,1.89-1.47,3.37-3.01,4.42-4.62" vector-effect="non-scaling-stroke"/>
    <path class="cls-8" d="M55.64,89.52c-5.11,1.63-7.78,7.55-5.98,13.21h0c1.81,5.67,7.42,8.94,12.52,7.31,5.11-1.63,7.78-7.55,5.98-13.21h0c-1.81-5.67-7.42-8.94-12.52-7.31" vector-effect="non-scaling-stroke"/>
    <path class="cls-8" d="M844.32,197.25c5.87.36,6.12-4.77,4.41-8.86-2.63-6.32-4.47-10.59-5.52-12.82-.76-1.62-1.53-4.9-.96-6.36,2.48-6.39,4.04-10.58,4.67-12.58,1.35-4.31,3.5-11.06-3.05-11.38-5.78-.27-11.05.96-16.01,1.91-1.51.29-3.07-.21-4.14-1.31-2.33-2.4-5.78-5.6-10.33-9.61-2.1-1.84-5.97-4.45-8.52-2.16-1.73,1.55-2.81,3.54-3.26,5.97-.96,5.21-1.57,10.26-1.84,15.17-.08,1.57-.88,3.02-2.17,3.91-1.13.79-4.51,2.79-10.12,6.02-7.51,4.31-9.07,11-.08,15.07l10.72,5.53c1.75.9,2.74,2.27,2.98,4.11.55,4.16.96,9.12,1.23,14.87.09,1.93.63,3.66,1.61,5.19,2.48,3.88,7.04.89,9.47-1.58,4.31-4.39,7.71-8.06,10.21-11.01,1.63-1.91,3.38-2.7,5.25-2.36,7.31,1.33,12.46,2.09,15.45,2.28" vector-effect="non-scaling-stroke"/>
    <path class="cls-8" d="M39.84,239.35c3.84-.63,9.21,3.58,15,7.04,2.42,1.44,5.03,1.41,7.83-.09.43-.23.75-.63.88-1.1,1.61-5.69-.11-12.08-1.92-17.59-.92-2.78-1.39-6.21.3-8,2.59-2.73,5.18-5.47,7.75-8.23,3.42-3.67,5.32-8.34,1.17-11.64-2.63-2.09-9.93-1.35-14.53-1.42-3.47-.05-5.6-1.76-6.41-5.12-1.38-5.77-2.18-11.19-5.89-15.54-1.98-2.32-4.97-2.62-6.91-.35-6.08,7.15-3.81,18.05-15.69,19.08-5.33.47-14.48,1.03-14.58,7.85,0,.45.1.9.3,1.3,2.07,4.25,4.88,8.26,8.43,12.03,2.25,2.38,3.14,5.44,2.65,9.19-1.08,8.43-1.7,13.27-1.86,14.52-.57,4.37,1.17,6.97,5.22,7.8.32.07.65.04.96-.07,3.18-1.17,5.2-2.08,6.07-2.72,3.54-2.62,6.97-4.83,10.28-6.62.3-.16.62-.27.95-.32" vector-effect="non-scaling-stroke"/>
    <path class="cls-44" d="M724.8,221.96c-.72-3.59-4.31-5.91-8-5.16-3.69.74-6.1,4.26-5.37,7.86.72,3.59,4.31,5.91,8,5.16,3.69-.74,6.1-4.26,5.37-7.86" vector-effect="non-scaling-stroke"/>
    <path class="cls-44" d="M826.93,298.85c-1.24-3.08-5.28-3.66-9.11-4.92-1.53-.51-2.7-1.75-3.11-3.3-1.48-5.52-2.14-9.38-3.97-11.87-1.69-2.28-3.69-.04-4.25,1.69-.71,2.19-1.46,5.24-2.27,9.15-1.49,7.2-8.79,4.77-13.02,9.07-.27.27-.41.64-.38,1.01.4,6.35,12.12,4.41,13.78,11.1.75,3.01,1.47,5.96,2.14,8.84.31,1.31.94,2.33,1.89,3.05.94.7,2.27.52,2.97-.42.05-.06.09-.13.13-.19,2.08-3.56,2.78-8.6,3.59-12.82.05-.26.14-.52.27-.77,1.58-2.97,4.71-3.75,8.65-5.53,2.01-.91,2.99-1.94,2.92-3.1-.02-.34-.1-.67-.23-.99" vector-effect="non-scaling-stroke"/>
    <path class="cls-50" d="M360.01,87.44c-1.61.22-2.9,1.47-3.15,3.08-.99,6.15-1.65,9.99-1.98,11.52-3.41,15.7-9.39,30.3-17.95,43.81-4.05,6.38-7.88,11.72-11.51,16.01-4.77,5.65-7.85,9.5-9.24,11.57-.7,1.04-.42,2.44.61,3.13.05.04.11.07.16.1l.09.05c1.29.72,2.9.49,3.93-.56,4.17-4.25,7.41-7.84,9.71-10.78,5.9-7.53,13.37-18.03,18.09-27.62,5.27-10.73,9.01-20.91,11.21-30.55.94-4.1,1.82-9.89,2.65-17.38.13-1.2-.75-2.28-1.95-2.41-.17-.02-.35-.02-.52,0l-.15.02" vector-effect="non-scaling-stroke"/>
    <path class="cls-50" d="M308.39,137.3c.79-2.22-.91-4.86-3.44-4.08-.56.17-1.2.89-1.92,2.15-.76,1.31-1.24,2.21-1.43,2.7-3.1,7.69-5.58,13.04-7.43,16.05-5.77,9.37-8.49,14.43-14.07,21.72-7.41,9.67-15.37,18.19-23.88,25.55-1.48,1.29-3.59,3.79-4.17,4.89-.5.95-.55,1.95-.14,3,.2.53.72.86,1.28.84.81-.03,1.52-.24,2.14-.62,7.16-4.38,13.36-11.26,19.64-17.82,4.17-4.37,9.84-11.7,17-22,6.63-9.53,12.1-20.32,16.42-32.38" vector-effect="non-scaling-stroke"/>
    <path class="cls-16" d="M588.57,244.46c.99.85,2.13,1.07,3.4.66,4.46-1.46,2.29-10.2.92-12.66-.08-.15-1.21-2.09-3.39-5.82-5.22-8.94-1.66-21.04,4.9-28.33.81-.89,2.71-2.82,5.7-5.79,1.72-1.7,1.6-3.34-.35-4.93-2.57-2.09-5.88.71-7.79,2.54-10.13,9.75-14.93,23.98-10.11,37.54.98,2.76,2.44,4.37,3.99,7.04,1.78,3.08,1.72,6.13,2.18,8.76.06.39.26.74.55.99" vector-effect="non-scaling-stroke"/>
    <path class="cls-3" d="M428.39,197.95c-5.67,1.77-9.87,3.9-14.42,8.3-1.17,1.12-1.3,2.94-.31,4.22l.11.13c.95,1.22,2.7,1.47,3.94.56,4.39-3.2,8.63-5.43,12.72-6.69,4.07-1.29,8.83-1.87,14.26-1.75,1.54.04,2.83-1.16,2.92-2.7v-.17c.1-1.61-1.05-3.03-2.64-3.29-6.25-1.02-10.92-.39-16.58,1.39" vector-effect="non-scaling-stroke"/>
    <path class="cls-41" d="M431.38,281.1c-3.27,1.89-4.12,4.72-2.55,8.47.16.4.42.76.74,1.05,3.49,3.15,7.39,5.14,11.72,5.97,16.19,3.11,31.05-6.12,38.42-20.48,1.96-3.8,4.14-9.85.54-13.31-3.07-2.96-6.77-1.19-8.24,2.18-2.57,5.9-6.5,10.61-11.78,14.14-8.18,5.46-16.42,6.33-25.23,2.07-1.37-.66-2.58-.69-3.62-.09" vector-effect="non-scaling-stroke"/>
    <path class="cls-47" d="M294.08,289.55c-4.52,3.94-7.54,7.62-9.97,13.55-.62,1.51,0,3.25,1.43,4.03l.15.08c1.38.75,3.1.27,3.88-1.08,2.77-4.75,5.79-8.54,9.06-11.37,3.25-2.85,7.41-5.33,12.5-7.42,1.44-.59,2.15-2.23,1.6-3.69l-.06-.16c-.58-1.53-2.21-2.38-3.79-1.97-6.21,1.6-10.27,4.08-14.8,8.03" vector-effect="non-scaling-stroke"/>
    <path class="cls-7" d="M525.54,294.39c-11.12-9.73-29.89-6.49-41.92,7.26-12.03,13.74-12.77,32.77-1.65,42.51h0c11.12,9.73,29.89,6.49,41.92-7.26,12.03-13.74,12.77-32.77,1.65-42.51" vector-effect="non-scaling-stroke"/>
    <path class="cls-16" d="M406.85,360.83c.15-1.52-.96-2.87-2.47-3.02-.34-.03-.68,0-1.01.09-3.48.96-5.99,2.76-10.17,2.36-2.09-.2-3.86-1.05-5.3-2.55-4.81-5-6.31-11.42-4.5-19.27.23-1.01.99-2.94,2.26-5.78.12-.26.18-.55.19-.84.06-2.29-.93-3.54-2.96-3.76-2.86-.3-4.51,2.8-5.49,5.26-4.11,10.27-2.26,23.01,6.32,30.34,5.14,4.39,11.48,5.24,19.01,2.55,2.27-.82,3.87-2.87,4.11-5.27v-.11" vector-effect="non-scaling-stroke"/>
    <path class="cls-41" d="M311.43,359.77c-2.03.39-3.32,1.56-3.85,3.53-.85,3.16.25,5.76,3.3,7.79,12.13,8.08,27.99,5.28,37.88-4.89,4.9-5.04,15.5-21.82,5.23-26.82-3.11-1.52-5.16.9-6.11,3.72-2.64,7.85-7.38,13.59-14.22,17.21-4.83,2.55-11.58,3.42-17.05,1.03-2.12-.93-3.51-1.45-4.18-1.57-.33-.06-.67-.06-1,0" vector-effect="non-scaling-stroke"/>
    <path class="cls-41" d="M417.77,400.7c-1.8,6.47,7.35,6.75,11.24,6.18,8.86-1.31,16.08-5.99,21.65-14.04,2.05-2.97,5.42-8.8,1.15-11.28-1.84-1.08-4.61-.08-5.35,1.61-2.71,6.23-7.09,10.84-13.14,13.83-4.23,2.09-8.31,2.12-12.99,1.85-1.18-.06-2.25.71-2.56,1.85" vector-effect="non-scaling-stroke"/>
    <path class="cls-7" d="M315.11,400.02c-5.53,18.14,8.34,31.62,25.91,30.46,13.7-.91,29.05-9.35,28.91-24.42-.18-20.62-21.68-25.89-37.5-20.73-6.97,2.27-15.09,7.4-17.32,14.69" vector-effect="non-scaling-stroke"/>
    <path class="cls-49" d="M413.82,209.67c.1.75.95,1.2,1.91,1.02.14-.03.29-.07.42-.13,1.78-.73,3.83-1.97,6.15-3.72.2-.15.41-.29.64-.4,6.68-3.23,14.38-5.71,21.66-4.6.97.15,1.86-.57,2-1.61.03-.24.02-.49-.04-.73-.61-2.63-7.08-2.69-8.65-2.5-8.41,1.02-15.87,3.99-22.38,8.91-1.33,1.01-1.9,2.27-1.71,3.76" vector-effect="non-scaling-stroke"/>
    <path class="cls-32" d="M430.13,283.55c-1.59,2.69-1.15,5.09,1.34,7.2,9.34,7.91,24.48,6.09,34.2-.12,7.22-4.62,14.06-13.2,15.45-22.32.41-2.7-.67-4.59-3.22-5.68-.26-.11-.54-.16-.82-.16-1.91,0-3.21.81-3.91,2.43-3.45,8.01-9.16,13.94-17.12,17.78-6.63,3.21-13.71,3.12-21.22-.25-1.31-.59-2.18-.81-2.62-.67-.83.25-1.53.85-2.08,1.79" vector-effect="non-scaling-stroke"/>
    <path class="cls-27" d="M158.89,706c.67.51,1.42.71,2.23.6.35-.05.68-.2.94-.44,8.25-7.45,16.89-13.78,25.92-18.99,13.53-7.81,27.71-14.8,42.78-19.36,10.56-3.19,15.88-4.79,15.96-4.8.98-.09,1.83-.71,2.22-1.61l1.61-3.7c.31-.7-.01-1.52-.72-1.83-.28-.12-.59-.15-.89-.08-17.57,4.27-34.7,10.5-51.4,18.7-13.34,6.55-25.31,13.67-35.63,23.36-2.07,1.95-3.22,4.36-3.44,7.22-.03.36.13.71.42.93" vector-effect="non-scaling-stroke"/>
    <path class="cls-32" d="M350.17,340.98c-.15.15-.34.37-.56.65-.23.28-.4.61-.51.96-2.29,7.78-6.86,13.77-13.71,17.98-5.41,3.32-11.32,4.13-17.74,2.43-.57-.15-2.37-.87-5.38-2.18-.32-.14-.67-.16-.99-.06-3.63,1.09-3.35,6.43-.93,8.52,4.01,3.47,9.75,5.27,14.84,5.6,2.93.19,6.37-.37,10.31-1.7,11.39-3.82,18.58-12.04,21.55-24.65.79-3.37-.28-6-3.22-7.89-1.16-.75-2.67-.6-3.66.34" vector-effect="non-scaling-stroke"/>
    <path class="cls-32" d="M418.73,400.94c-.12.45-.06,1.32.18,2.59.06.34.28.64.59.81,1.68.93,3.12,1.42,4.33,1.49,6.57.34,12.49-1.42,17.78-5.28,5.07-3.71,9.49-8.84,11.15-15.08.09-.35.07-.72-.05-1.06-.96-2.66-4.43-2.63-5.56-.18-4.59,9.96-14.97,17.95-26.44,15.48-.88-.19-1.76.35-1.98,1.23" vector-effect="non-scaling-stroke"/>
    <path class="cls-1" d="M282.14,428.79c-8.39-15.35-31.66-10.26-28.38,9.07.1.62.69,1.04,1.31.94.11-.02.23-.06.33-.11,8.67-4.32,17.49-7.42,26.46-9.29.23-.05.37-.27.32-.5,0-.04-.02-.08-.04-.11" vector-effect="non-scaling-stroke"/>
    <path class="cls-37" d="M309.46,501.29c0-4.19-3.39-7.58-7.58-7.58s-7.58,3.39-7.58,7.58h0c0,4.19,3.39,7.58,7.58,7.58h0c4.19,0,7.58-3.39,7.58-7.58" vector-effect="non-scaling-stroke"/>
    <path class="cls-37" d="M279.07,529.33c-2.94,1.69-5.25,3.6-6.93,5.73-2.01,2.53-3.19,5.49-3.55,8.89" vector-effect="non-scaling-stroke"/>
    <path class="cls-42" d="M268.59,543.95c-1.63,2.39-2.88,4.91-3.76,7.57-6.44,19.43,1.38,44.76,25.17,46.06,16.96.93,33.5-11.85,41.87-25.31,8.12-13.06,9.76-29.63-.16-42.23-5.39-6.83-12.12-10.61-20.21-11.33-8.79-.77-16.84.91-24.73,5.43-2.51,1.44-5.2,2.87-8.07,4.28-.15.07-.23.24-.19.4.05.18.23.35.56.51" vector-effect="non-scaling-stroke"/>
    <path class="cls-19" d="M268.59,543.95c1.33,10.29,10.26,11.2,18.24,8.62.65-.21,1.36-.05,1.85.42,3.12,2.97,6.35,7.19,10.66,9.14.28.12.41.46.29.74-.01.03-.03.06-.05.09-2.31,3.51-5.43,5.65-9.37,6.4-.26.05-.52.08-.79.07-1.23-.02-2.44.05-3.61.21-3.49.48-2.56,5.62,1.04,5.95,6.51.61,11.85-1.66,16.04-6.79,2.59-3.17,5.19-6.22,7.8-9.14,3.77-4.22,5.23-9.22,4.36-15.01-.25-1.72-1.69-3.01-3.43-3.08h-.3c-1.41-.07-2.6,1.04-2.66,2.46,0,.19,0,.37.04.55.69,3.82.08,7.12-1.84,9.89-4.14,5.99-11.12-3.08-13.52-6.13-.53-.68-.66-1.59-.33-2.39,1.75-4.23,2.56-9.61.26-13.42-2.91-4.82-9.28-5.37-14.2-3.2" vector-effect="non-scaling-stroke"/>
    <path class="cls-1" d="M354.62,571.48l5.14,5.13c.07.08.19.08.27,0,0,0,.01-.02.02-.02,6.11-8.93,11.01-18.47,14.7-28.64,3.22-8.89,4.63-18.08,4.23-27.57-.04-.9-.77-1.61-1.66-1.63-1.91-.05-3.03.86-3.35,2.73-1.63,9.6-4.15,19.02-8.18,27.9-3.69,8.15-6.67,15.21-11.22,21.47-.14.19-.12.46.05.63" vector-effect="non-scaling-stroke"/>
    <path class="cls-1" d="M183.43,557.04l1.52-28.94c.02-.25-.18-.47-.43-.49,0,0,0,0-.01,0l-2.44-.12c-7.82-.41-14.5,5.89-14.93,14.07v.22c-.44,8.18,5.55,15.15,13.37,15.56l2.44.13c.25.01.46-.18.48-.43" vector-effect="non-scaling-stroke"/>
    <path class="cls-37" d="M252.7,556.48c0-4.21-3.41-7.62-7.62-7.62s-7.62,3.41-7.62,7.62,3.41,7.62,7.62,7.62,7.62-3.41,7.62-7.62" vector-effect="non-scaling-stroke"/>
    <path class="cls-24" d="M301.72,680.96c-.33-2.49-.62-6.77-.86-12.85-.25-6.43-.66-10.93-1.07-17.26-.26-3.98-6.58-6.84-6.75-1.29-.34,11.01,2.89,22.11,7.95,31.63.1.19.34.26.53.16.14-.08.22-.23.2-.39" vector-effect="non-scaling-stroke"/>
  </g>
  <path class="cls-69" d="M697.8,137.84c.17-1.03.72-1.93,1.64-2.68,16.69-13.49,25.85-30.96,27.46-52.39,1.91-25.35-9.46-49.22-30.17-64.06-2.77-1.98-6.72-4.57-11.83-7.78-2.08-1.3-2.83-3.29-2.25-5.98.12-.55.49-1.02,1-1.26,5.53-2.58,13.81-3.04,19.7-2.48,17.9,1.67,34.71,9.15,46.94,22.37,16.79,18.13,22.68,40.85,18.1,65.16-5.53,29.43-30.58,53.43-60.77,54.57-4.03.15-10.68-.33-9.82-5.47Z"/>
  <path class="cls-62" d="M571.85,99.14c-.26.05-.44-.02-.55-.22-.07-.14-.03-.3.1-.38,0,0,0,0,0,0,3.25-1.75,5.61-3.63,7.08-5.65,4.21-5.82.74-12.55-4.69-16.35-7.93-5.54-17.46-8.62-27.43-10.66-1.04-.21-1.87-1.02-2.09-2.07-.31-1.46-.71-4.3-1.47-6.35-5.8-15.66-23.7-17.81-36.49-9.54-.56.36-1.29.31-1.8-.11-3.25-2.71-7.05-5.04-11.38-7.01-7.75-3.52-15.18-5.87-22.3-7.05-6.89-1.15-12-2.28-18.05-2.46-11.31-.35-19.79-.2-25.44.43-6,.66-12.17.83-17.29,2.04-4.31,1.01-8.68,1.27-13.48,2.36-5.45,1.24-10.26,2.39-14.44,3.45-4.04,1.03-11.11,3.47-21.21,7.34-12.69,4.85-26.25,12.44-40.68,22.77-2.59,1.86-4.44,3.34-5.55,4.44-2.27,2.25-4.02,3.84-5.26,4.77-5.44,4.08-8.56,7.78-13.91,13.07-1.71,1.69-3.54,3.84-5.51,6.44-1.61,2.14-3.57,4.45-5.87,6.94-.89.96-4.29,5.64-10.22,14.04-1,1.41-2.07,2.5-3.21,3.27-5.8,3.93-11.07,8-15.81,12.19-8.21,7.28-16.87,15.52-23.37,24.42-3.94,5.39-6.71,9.43-8.32,12.1-6.45,10.75-10.73,22.31-12.85,34.68-.57,3.32-1.48,12.08.22,14.58,2.45,3.6,5.18,3.18,9.31,2.95.27-.02.52.15.6.41l.14.44c-10.8,2.18-12.74-4.75-11.95-13.88.72-8.27,2.93-16.79,6.62-25.57,11.09-26.37,31.71-47.42,55.15-63.65,1.23-.85,2.29-1.94,3.12-3.19,25.56-38.75,60.41-64.93,104.56-78.52,11.63-3.58,25.03-6.27,40.21-8.06,25.8-3.05,52.82-2.34,76.11,8.88,4.09,1.97,7.61,4.27,10.57,6.88.23.2.57.21.82.03,8.48-6.18,19.69-6.96,28.65-1.57,6.31,3.79,9.8,9.87,10.48,18.24.04.48.4.88.88.97,6.13,1.11,11.91,2.75,17.33,4.93,6.66,2.68,16.67,8.11,17.98,15.32,1.14,6.29-3.84,11.4-9.32,13.91Z"/>
  <path class="cls-57" d="M571.85,99.14c-.43.1-.69.41-.78.92-.27-.03-.46.05-.55.22-.09.17-.03.34.16.52,5.67,5.19,9.42,11.48,14.26,19.11,4.71,7.43,8.65,16.42,11.82,26.99.56,1.86.89,3.58,1,5.15.02.31-.22.59-.54.61,0,0-.01,0-.02,0-5.31.12-10.53,1.83-15.67,5.14-1.08.69-3.4,2.43-6.95,5.21-.83.65-3.2,3.3-7.1,7.93-4.98,5.92-8.97,13.95-11.87,20.81-.23.56-.8.9-1.41.85-8.59-.76-17.96-1.51-26.46-3.55-12.41-2.97-22.86-6.27-31.33-9.9-15.91-6.81-31.54-16.09-46.9-27.86-8.76-6.71-18.71-14.76-29.85-24.13-1.51-1.27-4.86-3.96-10.07-8.09-3.41-2.71-6.68-5.44-9.8-8.21-.29-.25-.59-.27-.91-.07-.11.07-.18.2-.21.39-.6.21-.92.76-.96,1.65-.09-.9-.39-.83-.9.2-.09.19-.15.38-.2.58-2.45,10.72-4.7,18.89-6.74,24.5-.71,1.97-2.05,5.53-4,10.68-3.99,10.52-9.32,20.27-15.98,29.24-5.13,6.92-11.26,12.45-18.38,16.6-.55.31-2.07.85-4.56,1.62-6.16,1.89-9.6-4.84-11.28-9.4-.06-.15-.23-.23-.39-.17-.09.03-.15.1-.17.19l-.11.43-.97-2.8c-.07-.21-.3-.32-.51-.25-.08.03-.15.08-.2.16-.15.23-.15.44,0,.64-.07-.08-.14-.15-.21-.2-.15-.12-.37-.09-.49.06-.03.03-.05.07-.06.11-3.15,9.61-5.46,16.46-6.95,20.57-4.27,11.78-9.98,23.16-17.13,34.15-.17.27-.36.51-.59.72-2.3,2.17-4.03,5.09-6.1,6.95-3.75,3.35-7.45,5.82-11.12,7.4-4.38,1.89-10.12.45-11.17-4.93-.69-3.5-.85-7-.5-10.49.02-.22-.14-.42-.36-.44-.05,0-.11,0-.16.02-.13.04-.26.13-.37.26,0-.41-.08-.73-.22-.96-.19-.33-.43-.39-.71-.17-.19.15-.33.41-.4.78-.33-.39-.57-.44-.72-.17-4.81,8.72-10.27,16.75-16.4,24.1-2.82,3.38-7.79,7.8-14.91,13.26-.27.21-.56.37-.88.49-1.11.4-2.63,1.13-4.56,2.19-2.52,1.38-5.37,2.32-8.56,2.82-6.97,1.09-12.03-4.98-13.68-11.46-2.61-10.26-2.73-20.84-.35-31.74.9-4.11,2.47-8.26,4.72-12.46.23-.44.12-.73-.34-.87,0-.23-.15-.44-.46-.62l-.14-.44c-.08-.26-.33-.43-.6-.41-4.13.23-6.86.65-9.31-2.95-1.7-2.5-.79-11.26-.22-14.58,2.12-12.37,6.4-23.93,12.85-34.68,1.61-2.67,4.38-6.71,8.32-12.1,6.5-8.9,15.16-17.14,23.37-24.42,4.74-4.19,10.01-8.26,15.81-12.19,1.14-.77,2.21-1.86,3.21-3.27,5.93-8.4,9.33-13.08,10.22-14.04,2.3-2.49,4.26-4.8,5.87-6.94,1.97-2.6,3.8-4.75,5.51-6.44,5.35-5.29,8.47-8.99,13.91-13.07,1.24-.93,2.99-2.52,5.26-4.77,1.11-1.1,2.96-2.58,5.55-4.44,14.43-10.33,27.99-17.92,40.68-22.77,10.1-3.87,17.17-6.31,21.21-7.34,4.18-1.06,8.99-2.21,14.44-3.45,4.8-1.09,9.17-1.35,13.48-2.36,5.12-1.21,11.29-1.38,17.29-2.04,5.65-.63,14.13-.78,25.44-.43,6.05.18,11.16,1.31,18.05,2.46,7.12,1.18,14.55,3.53,22.3,7.05,4.33,1.97,8.13,4.3,11.38,7.01.51.42,1.24.47,1.8.11,12.79-8.27,30.69-6.12,36.49,9.54.76,2.05,1.16,4.89,1.47,6.35.22,1.05,1.05,1.86,2.09,2.07,9.97,2.04,19.5,5.12,27.43,10.66,5.43,3.8,8.9,10.53,4.69,16.35-1.47,2.02-3.83,3.9-7.08,5.65-.13.07-.18.23-.11.37,0,0,0,0,0,0,.11.2.29.27.55.22ZM360.01,87.44c-1.61.22-2.9,1.47-3.15,3.08-.99,6.15-1.65,9.99-1.98,11.52-3.41,15.7-9.39,30.3-17.95,43.81-4.05,6.38-7.88,11.72-11.51,16.01-4.77,5.65-7.85,9.5-9.24,11.57-.7,1.04-.42,2.44.61,3.13.05.04.11.07.16.1l.09.05c1.29.72,2.9.49,3.93-.56,4.17-4.25,7.41-7.84,9.71-10.78,5.9-7.53,13.37-18.03,18.09-27.62,5.27-10.73,9.01-20.91,11.21-30.55.94-4.1,1.82-9.89,2.65-17.38.13-1.2-.75-2.28-1.95-2.41-.17-.02-.35-.02-.52,0l-.15.02ZM308.39,137.3c.79-2.22-.91-4.86-3.44-4.08-.56.17-1.2.89-1.92,2.15-.76,1.31-1.24,2.21-1.43,2.7-3.1,7.69-5.58,13.04-7.43,16.05-5.77,9.37-8.49,14.43-14.07,21.72-7.41,9.67-15.37,18.19-23.88,25.55-1.48,1.29-3.59,3.79-4.17,4.89-.5.95-.55,1.95-.14,3,.2.53.72.86,1.28.84.81-.03,1.52-.24,2.14-.62,7.16-4.38,13.36-11.26,19.64-17.82,4.17-4.37,9.84-11.7,17-22,6.63-9.53,12.1-20.32,16.42-32.38Z"/>
  <ellipse class="cls-70" cx="156.79" cy="62.24" rx="10.33" ry="10.96" transform="translate(-11.63 71.8) rotate(-24.9)"/>
  <path class="cls-69" d="M663.82,86.92c-1.05,1.61-2.53,3.15-4.42,4.62-2.46,1.92-1.3,5.39-.77,9.48.16,1.3.1,2.21-.18,2.73-.46,1.01-1.66,1.45-2.67.99-.04-.02-.08-.04-.11-.06l-5.85-3.15c-1.14-.61-2.55-.3-3.32.74-1.52,2.05-2.82,4.12-4.84,3.56-.94-.27-1.62-1.21-1.7-2.35-.16-2.46.13-5.02.88-7.69.29-1.05.18-2.15-.35-3.29-.13-.28-.32-.54-.54-.75-1.23-1.17-2.62-2.58-4.17-4.24-3.36-3.61,4.18-5.57,6.46-6.15,1.26-.33,2.29-1.25,2.75-2.47.8-2.16,1.62-3.97,2.46-5.44.98-1.7,3.19-3.2,4.71-1,1.67,2.41,2.03,4.41,2.95,8.08.62,2.42,4.62,3.13,7.18,3.31,1.1.08,1.93,1.04,1.85,2.13-.02.34-.13.66-.32.95Z"/>
  <path class="cls-60" d="M360.01,87.44l.15-.02c1.2-.16,2.3.68,2.46,1.88.02.17.03.35,0,.52-.83,7.49-1.71,13.28-2.65,17.38-2.2,9.64-5.94,19.82-11.21,30.55-4.72,9.59-12.19,20.09-18.09,27.62-2.3,2.94-5.54,6.53-9.71,10.78-1.03,1.05-2.64,1.28-3.93.56l-.09-.05c-1.09-.6-1.48-1.98-.87-3.07.03-.06.06-.11.1-.16,1.39-2.07,4.47-5.92,9.24-11.57,3.63-4.29,7.46-9.63,11.51-16.01,8.56-13.51,14.54-28.11,17.95-43.81.33-1.53.99-5.37,1.98-11.52.25-1.61,1.54-2.86,3.15-3.08Z"/>
  <ellipse class="cls-69" cx="58.92" cy="99.78" rx="9.71" ry="10.77" transform="translate(-27.55 22.64) rotate(-17.7)"/>
  <path class="cls-55" d="M571.07,100.06c1.51,1.34,2.89,2.8,4.12,4.37,11.08,14.13,20.74,31.21,23.92,49.08-22.35.81-34.83,20.68-43.02,38.94-.25.57-.83.92-1.45.89-39.72-1.68-76.35-18.11-107.3-42.54-17.36-13.7-32.29-26.62-48.67-39.62.03-.19.1-.32.21-.39.32-.2.62-.18.91.07,3.12,2.77,6.39,5.5,9.8,8.21,5.21,4.13,8.56,6.82,10.07,8.09,11.14,9.37,21.09,17.42,29.85,24.13,15.36,11.77,30.99,21.05,46.9,27.86,8.47,3.63,18.92,6.93,31.33,9.9,8.5,2.04,17.87,2.79,26.46,3.55.61.05,1.18-.29,1.41-.85,2.9-6.86,6.89-14.89,11.87-20.81,3.9-4.63,6.27-7.28,7.1-7.93,3.55-2.78,5.87-4.52,6.95-5.21,5.14-3.31,10.36-5.02,15.67-5.14.32-.01.57-.27.56-.59,0,0,0-.01,0-.02-.11-1.57-.44-3.29-1-5.15-3.17-10.57-7.11-19.56-11.82-26.99-4.84-7.63-8.59-13.92-14.26-19.11-.19-.18-.25-.35-.16-.52.09-.17.28-.25.55-.22Z"/>
  <path class="cls-67" d="M398.67,111.18c16.38,13,31.31,25.92,48.67,39.62,30.95,24.43,67.58,40.86,107.3,42.54.62.03,1.2-.32,1.45-.89,8.19-18.26,20.67-38.13,43.02-38.94,1.42.51,2.86.96,4.33,1.36,16.24,4.42,26.1,22.83,29.8,38.24,4.26,17.75,3.84,35.16-1.26,52.24-4.95,16.61-14.2,29.83-27.73,39.66-.63.45-1,1.18-1,1.95-.02,8.58-.53,17.06-1.53,25.45-.48.93-.68,2.14-.59,3.62-4.29,27.95-14.39,54.62-29.75,78.34-7.88,11.56-16.11,21.4-24.68,29.52-4.43,4.19-7.33,7.01-8.71,8.46-5.98,4.94-11.79,9.95-18.04,14.29-6.68,4.63-11.85,8.05-15.51,10.24-19.44,11.65-40.46,19.5-63.07,23.56-11.15,1.58-20.66,2.39-28.52,2.42-9.53.03-19.75-1.11-30.68-3.42-1.92-.41-4.71-1.23-8.36-2.47-2.71-.92-5.51-1.72-8.42-2.39-7.55-12.59-17.64-23.18-30.29-31.75-7.11-4.81-14.57-8.36-22.39-10.65-2.13-.62-4.86-1.21-8.19-1.77.26-.37.31-.66.14-.87-2.71-3.5-5.17-7.17-7.36-11.01-2.61-4.59-4.74-8.04-6.38-10.37-1.75-2.5-4.12-6.36-7.1-11.59-20.21-35.53-34.29-73.51-40.73-114.17-.1-.62-.07-1.37.1-2.24.21-1.05.14-1.79-.2-2.22,8.83-5.72,16.38-12.84,22.64-21.37,3.87-5.27,7.59-11.17,11.15-17.69.07-.37.21-.63.4-.78.28-.22.52-.16.71.17.14.23.21.55.22.96-.76,4.54-.52,12.35,3.26,15.43,3.5,2.85,9.11,1.56,12.65-.47,5.35-3.06,9.98-7.26,13.9-12.59,12.1-16.45,20.4-38.73,25.4-56.55-.15-.2-.15-.41,0-.64.12-.18.37-.23.55-.11.07.05.13.12.16.2l.97,2.8c1.19,4.46,5.29,10.89,10.7,10.1,6.13-.89,12.65-5.71,17.03-10,9.07-8.9,16.39-20.81,21.43-32.07,6.11-13.65,10.63-27.82,13.55-42.5.04-.89.36-1.44.96-1.65ZM588.57,244.46c.99.85,2.13,1.07,3.4.66,4.46-1.46,2.29-10.2.92-12.66-.08-.15-1.21-2.09-3.39-5.82-5.22-8.94-1.66-21.04,4.9-28.33.81-.89,2.71-2.82,5.7-5.79,1.72-1.7,1.6-3.34-.35-4.93-2.57-2.09-5.88.71-7.79,2.54-10.13,9.75-14.93,23.98-10.11,37.54.98,2.76,2.44,4.37,3.99,7.04,1.78,3.08,1.72,6.13,2.18,8.76.06.39.26.74.55.99ZM428.39,197.95c-5.67,1.77-9.87,3.9-14.42,8.3-1.17,1.12-1.3,2.94-.31,4.22l.11.13c.95,1.22,2.7,1.47,3.94.56,4.39-3.2,8.63-5.43,12.72-6.69,4.07-1.29,8.83-1.87,14.26-1.75,1.54.04,2.83-1.16,2.92-2.7v-.17c.1-1.61-1.05-3.03-2.64-3.29-6.25-1.02-10.92-.39-16.58,1.39ZM431.38,281.1c-3.27,1.89-4.12,4.72-2.55,8.47.16.4.42.76.74,1.05,3.49,3.15,7.39,5.14,11.72,5.97,16.19,3.11,31.05-6.12,38.42-20.48,1.96-3.8,4.14-9.85.54-13.31-3.07-2.96-6.77-1.19-8.24,2.18-2.57,5.9-6.5,10.61-11.78,14.14-8.18,5.46-16.42,6.33-25.23,2.07-1.37-.66-2.58-.69-3.62-.09ZM294.08,289.55c-4.52,3.94-7.54,7.62-9.97,13.55-.62,1.51,0,3.25,1.43,4.03l.15.08c1.38.75,3.1.27,3.88-1.08,2.77-4.75,5.79-8.54,9.06-11.37,3.25-2.85,7.41-5.33,12.5-7.42,1.44-.59,2.15-2.23,1.6-3.69l-.06-.16c-.58-1.53-2.21-2.38-3.79-1.97-6.21,1.6-10.27,4.08-14.8,8.03ZM525.54,294.39c-11.12-9.73-29.89-6.49-41.92,7.26-12.03,13.74-12.77,32.77-1.65,42.51h0c11.12,9.73,29.89,6.49,41.92-7.26,12.03-13.74,12.77-32.77,1.65-42.51ZM406.85,360.83c.15-1.52-.96-2.87-2.47-3.02-.34-.03-.68,0-1.01.09-3.48.96-5.99,2.76-10.17,2.36-2.09-.2-3.86-1.05-5.3-2.55-4.81-5-6.31-11.42-4.5-19.27.23-1.01.99-2.94,2.26-5.78.12-.26.18-.55.19-.84.06-2.29-.93-3.54-2.96-3.76-2.86-.3-4.51,2.8-5.49,5.26-4.11,10.27-2.26,23.01,6.32,30.34,5.14,4.39,11.48,5.24,19.01,2.55,2.27-.82,3.87-2.87,4.11-5.27v-.11ZM311.43,359.77c-2.03.39-3.32,1.56-3.85,3.53-.85,3.16.25,5.76,3.3,7.79,12.13,8.08,27.99,5.28,37.88-4.89,4.9-5.04,15.5-21.82,5.23-26.82-3.11-1.52-5.16.9-6.11,3.72-2.64,7.85-7.38,13.59-14.22,17.21-4.83,2.55-11.58,3.42-17.05,1.03-2.12-.93-3.51-1.45-4.18-1.57-.33-.06-.67-.06-1,0ZM417.77,400.7c-1.8,6.47,7.35,6.75,11.24,6.18,8.86-1.31,16.08-5.99,21.65-14.04,2.05-2.97,5.42-8.8,1.15-11.28-1.84-1.08-4.61-.08-5.35,1.61-2.71,6.23-7.09,10.84-13.14,13.83-4.23,2.09-8.31,2.12-12.99,1.85-1.18-.06-2.25.71-2.56,1.85ZM315.11,400.02c-5.53,18.14,8.34,31.62,25.91,30.46,13.7-.91,29.05-9.35,28.91-24.42-.18-20.62-21.68-25.89-37.5-20.73-6.97,2.27-15.09,7.4-17.32,14.69Z"/>
  <path class="cls-55" d="M397.71,112.83c-2.92,14.68-7.44,28.85-13.55,42.5-5.04,11.26-12.36,23.17-21.43,32.07-4.38,4.29-10.9,9.11-17.03,10-5.41.79-9.51-5.64-10.7-10.1l.11-.43c.04-.16.2-.25.36-.2.09.03.17.09.2.18,1.68,4.56,5.12,11.29,11.28,9.4,2.49-.77,4.01-1.31,4.56-1.62,7.12-4.15,13.25-9.68,18.38-16.6,6.66-8.97,11.99-18.72,15.98-29.24,1.95-5.15,3.29-8.71,4-10.68,2.04-5.61,4.29-13.78,6.74-24.5.05-.2.11-.39.2-.58.51-1.03.81-1.1.9-.2Z"/>
  <path class="cls-60" d="M304.95,133.22c2.53-.78,4.23,1.86,3.44,4.08-4.32,12.06-9.79,22.85-16.42,32.38-7.16,10.3-12.83,17.63-17,22-6.28,6.56-12.48,13.44-19.64,17.82-.62.38-1.33.59-2.14.62-.56.02-1.08-.31-1.28-.84-.41-1.05-.36-2.05.14-3,.58-1.1,2.69-3.6,4.17-4.89,8.51-7.36,16.47-15.88,23.88-25.55,5.58-7.29,8.3-12.35,14.07-21.72,1.85-3.01,4.33-8.36,7.43-16.05.19-.49.67-1.39,1.43-2.7.72-1.26,1.36-1.98,1.92-2.15Z"/>
  <path class="cls-69" d="M848.73,188.39c1.71,4.09,1.46,9.22-4.41,8.86-2.99-.19-8.14-.95-15.45-2.28-1.87-.34-3.62.45-5.25,2.36-2.5,2.95-5.9,6.62-10.21,11.01-2.43,2.47-6.99,5.46-9.47,1.58-.98-1.53-1.52-3.26-1.61-5.19-.27-5.75-.68-10.71-1.23-14.87-.24-1.84-1.23-3.21-2.98-4.11l-10.72-5.53c-8.99-4.07-7.43-10.76.08-15.07,5.61-3.23,8.99-5.23,10.12-6.02,1.29-.89,2.09-2.34,2.17-3.91.27-4.91.88-9.96,1.84-15.17.45-2.43,1.53-4.42,3.26-5.97,2.55-2.29,6.42.32,8.52,2.16,4.55,4.01,8,7.21,10.33,9.61,1.07,1.1,2.63,1.6,4.14,1.31,4.96-.95,10.23-2.18,16.01-1.91,6.55.32,4.4,7.07,3.05,11.38-.63,2-2.19,6.19-4.67,12.58-.57,1.46.2,4.74.96,6.36,1.05,2.23,2.89,6.5,5.52,12.82Z"/>
  <path class="cls-69" d="M38.89,239.67c-3.31,1.79-6.74,4-10.28,6.62-.87.64-2.89,1.55-6.07,2.72-.31.11-.64.14-.96.07-4.05-.83-5.79-3.43-5.22-7.8.16-1.25.78-6.09,1.86-14.52.49-3.75-.4-6.81-2.65-9.19-3.55-3.77-6.36-7.78-8.43-12.03-.2-.4-.31-.85-.3-1.3.1-6.82,9.25-7.38,14.58-7.85,11.88-1.03,9.61-11.93,15.69-19.08,1.94-2.27,4.93-1.97,6.91.35,3.71,4.35,4.51,9.77,5.89,15.54.81,3.36,2.94,5.07,6.41,5.12,4.6.07,11.9-.67,14.53,1.42,4.15,3.3,2.25,7.97-1.17,11.64-2.57,2.76-5.16,5.5-7.75,8.23-1.69,1.79-1.22,5.22-.3,8,1.81,5.51,3.53,11.9,1.92,17.59-.13.47-.45.87-.88,1.1-2.8,1.5-5.41,1.53-7.83.09-5.79-3.46-11.16-7.67-15-7.04-.33.05-.65.16-.95.32Z"/>
  <path class="cls-55" d="M333.32,185.05c-5,17.82-13.3,40.1-25.4,56.55-3.92,5.33-8.55,9.53-13.9,12.59-3.54,2.03-9.15,3.32-12.65.47-3.78-3.08-4.02-10.89-3.26-15.43.11-.13.24-.22.37-.26.21-.07.44.05.5.26.02.05.02.11.02.16-.35,3.49-.19,6.99.5,10.49,1.05,5.38,6.79,6.82,11.17,4.93,3.67-1.58,7.37-4.05,11.12-7.4,2.07-1.86,3.8-4.78,6.1-6.95.23-.21.42-.45.59-.72,7.15-10.99,12.86-22.37,17.13-34.15,1.49-4.11,3.8-10.96,6.95-20.57.06-.18.25-.29.44-.23.04.01.08.03.11.06.07.05.14.12.21.2Z"/>
  <path class="cls-56" d="M588.02,243.47c-.46-2.63-.4-5.68-2.18-8.76-1.55-2.67-3.01-4.28-3.99-7.04-4.82-13.56-.02-27.79,10.11-37.54,1.91-1.83,5.22-4.63,7.79-2.54,1.95,1.59,2.07,3.23.35,4.93-2.99,2.97-4.89,4.9-5.7,5.79-6.56,7.29-10.12,19.39-4.9,28.33,2.18,3.73,3.31,5.67,3.39,5.82,1.37,2.46,3.54,11.2-.92,12.66-1.27.41-2.41.19-3.4-.66-.29-.25-.49-.6-.55-.99Z"/>
  <path class="cls-55" d="M428.39,197.95c5.66-1.78,10.33-2.41,16.58-1.39,1.59.26,2.74,1.68,2.65,3.29v.17c-.1,1.54-1.39,2.74-2.93,2.7-5.43-.12-10.19.46-14.26,1.75-4.09,1.26-8.33,3.49-12.72,6.69-1.24.91-2.99.66-3.94-.56l-.11-.13c-.99-1.28-.86-3.1.31-4.22,4.55-4.4,8.75-6.53,14.42-8.3ZM413.82,209.67c.1.75.95,1.2,1.91,1.02.14-.03.29-.07.42-.13,1.78-.73,3.83-1.97,6.15-3.72.2-.15.41-.29.64-.4,6.68-3.23,14.38-5.71,21.66-4.6.97.15,1.86-.57,2-1.61.03-.24.02-.49-.04-.73-.61-2.63-7.08-2.69-8.65-2.5-8.41,1.02-15.87,3.99-22.38,8.91-1.33,1.01-1.9,2.27-1.71,3.76Z"/>
  <path class="cls-57" d="M413.82,209.67c-.19-1.49.38-2.75,1.71-3.76,6.51-4.92,13.97-7.89,22.38-8.91,1.57-.19,8.04-.13,8.65,2.5.24,1.02-.34,2.06-1.29,2.31-.22.06-.45.07-.67.03-7.28-1.11-14.98,1.37-21.66,4.6-.23.11-.44.25-.64.4-2.32,1.75-4.37,2.99-6.15,3.72-.9.37-1.9.11-2.23-.56-.05-.1-.08-.21-.1-.33Z"/>
  <ellipse class="cls-70" cx="718.12" cy="223.31" rx="6.82" ry="6.64" transform="translate(-29.97 146.35) rotate(-11.4)"/>
  <path class="cls-62" d="M276.78,238.88c-3.56,6.52-7.28,12.42-11.15,17.69-6.26,8.53-13.81,15.65-22.64,21.37-8.08,4.54-18.02,8.37-24.2-1.62-1.42-2.29-2.48-4.79-3.19-7.5-2.66-12.76-1.92-25.29,2.23-37.59.77-2.27,1.86-4.33,3.27-6.19.46.14.57.43.34.87-2.25,4.2-3.82,8.35-4.72,12.46-2.38,10.9-2.26,21.48.35,31.74,1.65,6.48,6.71,12.55,13.68,11.46,3.19-.5,6.04-1.44,8.56-2.82,1.93-1.06,3.45-1.79,4.56-2.19.32-.12.61-.28.88-.49,7.12-5.46,12.09-9.88,14.91-13.26,6.13-7.35,11.59-15.38,16.4-24.1.15-.27.39-.22.72.17Z"/>
  <path class="cls-64" d="M431.38,281.1c1.04-.6,2.25-.57,3.62.09,8.81,4.26,17.05,3.39,25.23-2.07,5.28-3.53,9.21-8.24,11.78-14.14,1.47-3.37,5.17-5.14,8.24-2.18,3.6,3.46,1.42,9.51-.54,13.31-7.37,14.36-22.23,23.59-38.42,20.48-4.33-.83-8.23-2.82-11.72-5.97-.32-.29-.58-.65-.74-1.05-1.57-3.75-.72-6.58,2.55-8.47ZM430.13,283.55c-1.59,2.69-1.15,5.09,1.34,7.2,9.34,7.91,24.48,6.09,34.2-.12,7.22-4.62,14.06-13.2,15.45-22.32.41-2.7-.67-4.59-3.22-5.68-.26-.11-.54-.16-.82-.16-1.91,0-3.21.81-3.91,2.43-3.45,8.01-9.16,13.94-17.12,17.78-6.63,3.21-13.71,3.12-21.22-.25-1.31-.59-2.18-.81-2.62-.67-.83.25-1.53.85-2.08,1.79Z"/>
  <path class="cls-60" d="M430.13,283.55c.55-.94,1.25-1.54,2.08-1.79.44-.14,1.31.08,2.62.67,7.51,3.37,14.59,3.46,21.22.25,7.96-3.84,13.67-9.77,17.12-17.78.7-1.62,2-2.43,3.91-2.43.28,0,.56.05.82.16,2.55,1.09,3.63,2.98,3.22,5.68-1.39,9.12-8.23,17.7-15.45,22.32-9.72,6.21-24.86,8.03-34.2.12-2.49-2.11-2.93-4.51-1.34-7.2Z"/>
  <path class="cls-58" d="M215.6,268.82c.71,2.71,1.77,5.21,3.19,7.5,6.18,9.99,16.12,6.16,24.2,1.62.34.43.41,1.17.2,2.22-.17.87-.2,1.62-.1,2.24,6.44,40.66,20.52,78.64,40.73,114.17,2.98,5.23,5.35,9.09,7.1,11.59,1.64,2.33,3.77,5.78,6.38,10.37,2.19,3.84,4.65,7.51,7.36,11.01.17.21.12.5-.14.87l-8.04-1c-.3-.03-.52-.3-.49-.61.5-5.5.62-10.39-2.44-15.38-4.91-7.99-12.16-12.73-21.76-14.2-15.16-2.33-28.43,7.37-33.41,21.28-2.71,7.59-3.64,15.11,1.45,21.78.21.27.16.66-.11.87,0,0,0,0-.01,0-13.89,10.09-25.45,22.3-34.69,36.63-11.31-17.06-26.37-32.64-43.84-43.4-5.37-3.31-9.54-5.77-12.53-7.38-9.82-5.32-21.1-9.58-32.61-11.62-1.83-.32-3.61.79-4.13,2.58l-.04.13c-.5,1.75.51,3.58,2.26,4.08,4.95,1.42,9.06,2.34,13.52,4.05,16.4,6.29,31.78,14.89,44.53,26.45,4.94,4.48,11.26,10.08,16.08,16.2,3.09,3.91,7.14,9.48,12.15,16.71-3.99,6.93-7.4,14.36-10.23,22.28-.16.44-.63.68-1.08.55-9.21-2.78-18.01-1.69-26.4,3.28-11.58,6.85-16.61,20.11-15.73,33.2.71,10.7,5.25,18.85,13.62,24.44,7.45,4.98,16.75,5.74,24.95,2.53.46-.18.97.05,1.15.5.01.04.03.08.04.12,7.38,30.01,29.75,54.24,60.65,59.2,3.82.61,7.92,1,12.31,1.17.15,0,.29.04.42.1l.79.34-1.61,4.93c-1.13,1.79-2.1,3.65-2.91,5.59-2.3,5.5-4.34,11.97-6.12,19.4-2.22,9.23-3.59,19.11-4.1,29.63-.75,15.65-.19,37.4,14.07,47.23,6.07,4.18,12.43,4.4,19.09.66.35-.2.67-.45.95-.74,4.63-4.87,7.88-9.83,9.77-14.87,5.03-13.48,8.88-27.96,11.55-43.43.01-.1.11-.18.21-.17.06,0,.12.05.15.11,15.65,28.79,40.61,55.48,76.4,56.48,19.92.56,37.78-4.77,53.57-16,5.6-3.98,12.04-9.65,19.32-17.02,17.7-.08,35.23-2.48,52.59-7.19,14.47-3.93,28.72-9.3,42.75-16.1,24.2-11.72,46.56-28.51,64.08-48.94,7.4-8.65,14.4-18.83,21.01-30.56,13.11-23.28,22.21-48.48,27.31-75.6.78-4.14,1.26-7.65,1.45-10.54l.6-5.17c.03-.22.1-.43.21-.63.34-.59.65-.77.93-.54,18.27-5.47,34.68-9.11,49.24-10.92,9.36-1.17,21.97-1.85,37.84-2.05,6.79-.09,14.08.85,21.6,1.2,3.45.16,9.13.93,17.06,2.31,3.81.97,8.24,2.1,13.3,3.39,21.11,5.39,40.24,13.54,58.03,25.87,5.49,3.81,9.72,7.47,12.69,10.98,7.09,8.36,13.88,16.64,17.23,26.44,1.51,4.41,2.64,9.27,3.37,14.58,1.03,7.5.71,13.48-2.47,19.93-8.03,16.29-23.76,17.8-40.25,16.85-.94-.05-8.28-.54-22.01-1.45-5.53-.37-14.49-.41-26.88-.11-13.02.31-27.46,2.12-37.69,3.43-13.75,1.75-28.81,7.55-41.4,11.2-1.12.32-2.62.99-4.51,2.02-3.36,1.82-11.85,6-25.47,12.55-4.56,2.19-11.13,5.8-19.7,10.83-12.27,7.19-25.04,16.11-37.57,24.61-3.65,2.47-9.56,5.9-12.3,7.72-12.67,8.43-23.97,15.87-33.91,22.32-10.38,6.73-26.89,16.55-49.54,29.45-7.38,4.2-14.19,7.64-20.42,10.31-10.33,4.42-17.88,8.6-28.02,12.07-16.26,5.56-27.83,9.38-34.72,11.47-2.34.71-8.45,2.25-18.32,4.62-6.39,1.53-12.55,2.81-18.5,3.83-24.87,4.28-50.37,6.49-76.52,6.62-5.96.03-12.36-.16-19.19-.59-8.58-.54-16.82-.34-25.52-1.43-14.21-1.77-21.73-2.71-22.54-2.84-8.93-1.39-14.8-2.23-17.61-2.52-11.76-1.18-17.85-2.92-28.98-4.97-9.41-1.73-22.05-5.77-27.78-7.17-12.27-3-24.07-8.78-34.95-15.35-6.55-3.95-10.75-8.86-15.04-14.82-3.87-5.39-6.36-14.52-8.1-21.27-.11-.42-.53-.68-.96-.57-.02,0-.03,0-.05.01-5.21,1.64-10.14,5.31-14.47,7.36-6.63,3.14-13.4,4.22-20.32,3.23-8.73-1.24-12.7-10.68-12.91-18.62-.37-13.8,4.44-25.91,11.25-37.48.23-.4.2-.9-.09-1.25-3.96-4.83-8.97-10.24-14.67-15.55-4.65-4.34-8.52-10.73-12.18-15.23-5.56-6.84-10.29-14.94-15.45-22.06-2.99-4.11-5.7-8.6-8.14-13.45-6.13-12.19-10.08-20.51-11.85-24.96-2.51-6.31-5.03-12.61-7.58-18.92-.77-1.91-1.51-4.41-2.24-7.52-3.2-13.71-6.38-27.27-9.54-40.68-2.85-12.14-3.77-26.15-4.93-38.2-.85-8.93-1.29-15.89-1.32-20.9-.08-16.23.51-32.43,3.58-48,2.17-10.97,3.97-19.74,5.4-26.31,1.34-6.18-3.9-10.77-8.97-16.76-5.17-6.11-9.41-13.07-12.72-20.88-3.16-7.42-5.03-12.91-1.69-19.74,2.38-4.84,6.46-6.73,12.05-7.5,11.27-1.57,21.91-.13,31.92,4.34,1.7.75,3.94,1.42,6.73,1.99.37.07.74,0,1.05-.22,7.67-5.33,13.07-8.8,16.2-10.41.41-.21,4.94-2.52,13.59-6.91,20.93-10.65,43.05-18.69,66.44-24.56,2.18-.55,9.87-2.35,23.07-5.4,4.21-.98,9.02-1.98,14.43-3.01,9.46-1.79,18.08-3.98,27.35-3.96ZM158.89,706c.67.51,1.42.71,2.23.6.35-.05.68-.2.94-.44,8.25-7.45,16.89-13.78,25.92-18.99,13.53-7.81,27.71-14.8,42.78-19.36,10.56-3.19,15.88-4.79,15.96-4.8.98-.09,1.83-.71,2.22-1.61l1.61-3.7c.31-.7-.01-1.52-.72-1.83-.28-.12-.59-.15-.89-.08-17.57,4.27-34.7,10.5-51.4,18.7-13.34,6.55-25.31,13.67-35.63,23.36-2.07,1.95-3.22,4.36-3.44,7.22-.03.36.13.71.42.93Z"/>
  <path class="cls-70" d="M827.16,299.84c.07,1.16-.91,2.19-2.92,3.1-3.94,1.78-7.07,2.56-8.65,5.53-.13.25-.22.51-.27.77-.81,4.22-1.51,9.26-3.59,12.82-.59,1.01-1.89,1.34-2.9.74-.07-.04-.13-.08-.2-.13-.95-.72-1.58-1.74-1.89-3.05-.67-2.88-1.39-5.83-2.14-8.84-1.66-6.69-13.38-4.75-13.78-11.1-.03-.37.11-.74.38-1.01,4.23-4.3,11.53-1.87,13.02-9.07.81-3.91,1.56-6.96,2.27-9.15.56-1.73,2.56-3.97,4.25-1.69,1.83,2.49,2.49,6.35,3.97,11.87.41,1.55,1.58,2.79,3.11,3.3,3.83,1.26,7.87,1.84,9.11,4.92.13.32.21.65.23.99Z"/>
  <path class="cls-57" d="M298.63,294.76c-3.27,2.83-6.29,6.62-9.06,11.37-.78,1.35-2.5,1.83-3.88,1.08l-.15-.08c-1.44-.78-2.05-2.52-1.43-4.03,2.43-5.93,5.45-9.61,9.97-13.55,4.53-3.95,8.59-6.43,14.8-8.03,1.58-.41,3.21.44,3.79,1.97l.06.16c.55,1.46-.16,3.1-1.6,3.69-5.09,2.09-9.25,4.57-12.5,7.42Z"/>
  <ellipse class="cls-65" cx="503.76" cy="319.27" rx="33.07" ry="26.76" transform="translate(-68.29 488) rotate(-48.8)"/>
  <path class="cls-53" d="M601.72,312.41c7.6,1.2,14.18,2.79,19.74,4.78,22.44,8.03,42.76,21.6,61.77,38.32,14.06,12.37,27.22,26.09,39.48,41.18,19.94,24.53,36.85,51.61,52.48,79.99,4.47,8.12,8.71,16.68,12.72,25.69-7.93-1.38-13.61-2.15-17.06-2.31-7.52-.35-14.81-1.29-21.6-1.2-15.87.2-28.48.88-37.84,2.05-14.56,1.81-30.97,5.45-49.24,10.92l-.14-33.54c0-.66-.34-1.28-.9-1.63-2.06-1.3-3.84-1.08-5.34.66-.36.42-.56.96-.55,1.51.11,12.1-.02,23.26-.41,33.49-.09,2.6.98,4.07,3.21,4.4,1.22.18,1.4.92,2.39,1.45-.19,2.89-.67,6.4-1.45,10.54-5.1,27.12-14.2,52.32-27.31,75.6-6.61,11.73-13.61,21.91-21.01,30.56-17.52,20.43-39.88,37.22-64.08,48.94-14.03,6.8-28.28,12.17-42.75,16.1-17.36,4.71-34.89,7.11-52.59,7.19-2.45-.31-4.76-.76-6.91-1.33-3.19-.86-5.58-2.7-7.18-5.51,3.54.37,5.19-1.07,4.94-4.3-.03-.32-.11-.64-.24-.94-3.41-7.88-7.06-15.1-9.91-23.42-7.09-20.75-11.37-43.12-11.22-65.45.02-4.24-3.33-5.52-6.92-4.42l-.45-1.02c11.35-1.52,21.95-4.74,31.79-9.65,1.58-.79,4.55-2.35,8.92-4.7,9.78-5.26,18.51-12.94,26.69-20.85,6.79-6.56,13.63-15.46,18.43-22.63,5.61-8.38,10.64-17.76,15.1-28.14,3.87-9,6.7-17.66,8.5-25.98.49-2.25.71-3.96.67-5.13-.04-1.15-.87-2.11-2-2.32-2.71-.51-4.32.33-4.81,2.51-2.34,10.39-6.08,21.81-10.88,31.95-2.82,5.94-4.47,9.35-4.96,10.23-6.75,12.16-14.96,23.36-24.62,33.6-5.29,5.61-11.58,10.8-18.86,15.56-6.85-8.33-14.8-15.27-23.83-20.81-.13-.08-.17-.24-.09-.37.05-.08.14-.13.23-.13,1.56-.02,2.8-.08,3.71-.17,13.48-1.45,28.21-6.13,39.69-14.21,4.23-2.97,7.19-6.57,8.9-10.8,4.47-11.09-5.75-21.28-15.14-25.7-9.75-4.58-21.13-6.65-32.18-5.8-5.59.43-9.12.76-10.58.99-17.71,2.77-35.04,8.32-52.01,16.64-.27.13-.59.02-.72-.24-.04-.08-.06-.16-.06-.25.09-13.64-3.19-26.88-9.85-39.73,2.91.67,5.71,1.47,8.42,2.39,3.65,1.24,6.44,2.06,8.36,2.47,10.93,2.31,21.15,3.45,30.68,3.42,7.86-.03,17.37-.84,28.52-2.42,2.58,1.95,4.51,3.13,5.78,3.55,10.97,3.67,22.37,4.44,34.2,2.31,11.72-2.11,21.89-6.44,30.51-12.99,1.7-1.29,3.07-2.44,4.12-3.44,3.62-3.46,6.63-5.75,9.31-9.55,5.1-7.25,8.72-15.27,10.87-24.06.07-.3.22-.57.42-.79,1.01-1.11,1.48-2.15,1.41-3.12,1.38-1.45,4.28-4.27,8.71-8.46,8.57-8.12,16.8-17.96,24.68-29.52,4.14-3.09,7.79-6.62,10.95-10.59,15.65-19.65,22.16-42.11,19.53-67.36-.02-.18-.1-.32-.23-.43-.18-.15-.35-.13-.5.04-.09-1.48.11-2.69.59-3.62Z"/>
  <path class="cls-66" d="M571.38,394.37c15.36-23.72,25.46-50.39,29.75-78.34.15-.17.32-.19.5-.04.13.11.21.25.23.43,2.63,25.25-3.88,47.71-19.53,67.36-3.16,3.97-6.81,7.5-10.95,10.59Z"/>
  <path class="cls-56" d="M406.85,360.83v.11c-.25,2.4-1.85,4.45-4.12,5.27-7.53,2.69-13.87,1.84-19.01-2.55-8.58-7.33-10.43-20.07-6.32-30.34.98-2.46,2.63-5.56,5.49-5.26,2.03.22,3.02,1.47,2.96,3.76,0,.29-.07.58-.19.84-1.27,2.84-2.03,4.77-2.26,5.78-1.81,7.85-.31,14.27,4.5,19.27,1.44,1.5,3.21,2.35,5.3,2.55,4.18.4,6.69-1.4,10.17-2.36,1.46-.41,2.98.45,3.39,1.91.09.33.12.68.09,1.02Z"/>
  <path class="cls-64" d="M312.43,359.77c.67.12,2.06.64,4.18,1.57,5.47,2.39,12.22,1.52,17.05-1.03,6.84-3.62,11.58-9.36,14.22-17.21.95-2.82,3-5.24,6.11-3.72,10.27,5-.33,21.78-5.23,26.82-9.89,10.17-25.75,12.97-37.88,4.89-3.05-2.03-4.15-4.63-3.3-7.79.53-1.97,1.82-3.14,3.85-3.53.33-.06.67-.06,1,0ZM350.17,340.98c-.15.15-.34.37-.56.65-.23.28-.4.61-.51.96-2.29,7.78-6.86,13.77-13.71,17.98-5.41,3.32-11.32,4.13-17.74,2.43-.57-.15-2.37-.87-5.38-2.18-.32-.14-.67-.16-.99-.06-3.63,1.09-3.35,6.43-.93,8.52,4.01,3.47,9.75,5.27,14.84,5.6,2.93.19,6.37-.37,10.31-1.7,11.39-3.82,18.58-12.04,21.55-24.65.79-3.37-.28-6-3.22-7.89-1.16-.75-2.67-.6-3.66.34Z"/>
  <path class="cls-60" d="M350.17,340.98c.99-.94,2.5-1.09,3.66-.34,2.94,1.89,4.01,4.52,3.22,7.89-2.97,12.61-10.16,20.83-21.55,24.65-3.94,1.33-7.38,1.89-10.31,1.7-5.09-.33-10.83-2.13-14.84-5.6-2.42-2.09-2.7-7.43.93-8.52.32-.1.67-.08.99.06,3.01,1.31,4.81,2.03,5.38,2.18,6.42,1.7,12.33.89,17.74-2.43,6.85-4.21,11.42-10.2,13.71-17.98.11-.35.28-.68.51-.96.22-.28.41-.5.56-.65Z"/>
  <path class="cls-64" d="M417.77,400.7c.31-1.14,1.38-1.91,2.56-1.85,4.68.27,8.76.24,12.99-1.85,6.05-2.99,10.43-7.6,13.14-13.83.74-1.69,3.51-2.69,5.35-1.61,4.27,2.48.9,8.31-1.15,11.28-5.57,8.05-12.79,12.73-21.65,14.04-3.89.57-13.04.29-11.24-6.18ZM418.73,400.94c-.12.45-.06,1.32.18,2.59.06.34.28.64.59.81,1.68.93,3.12,1.42,4.33,1.49,6.57.34,12.49-1.42,17.78-5.28,5.07-3.71,9.49-8.84,11.15-15.08.09-.35.07-.72-.05-1.06-.96-2.66-4.43-2.63-5.56-.18-4.59,9.96-14.97,17.95-26.44,15.48-.88-.19-1.76.35-1.98,1.23Z"/>
  <path class="cls-60" d="M418.73,400.94c.22-.88,1.1-1.42,1.98-1.23,11.47,2.47,21.85-5.52,26.44-15.48,1.13-2.45,4.6-2.48,5.56.18.12.34.14.71.05,1.06-1.66,6.24-6.08,11.37-11.15,15.08-5.29,3.86-11.21,5.62-17.78,5.28-1.21-.07-2.65-.56-4.33-1.49-.31-.17-.53-.47-.59-.81-.24-1.27-.3-2.14-.18-2.59Z"/>
  <path class="cls-65" d="M315.11,400.02c2.23-7.29,10.35-12.42,17.32-14.69,15.82-5.16,37.32.11,37.5,20.73.14,15.07-15.21,23.51-28.91,24.42-17.57,1.16-31.44-12.32-25.91-30.46Z"/>
  <path class="cls-52" d="M304.52,430.41c3.33.56,6.06,1.15,8.19,1.77,7.82,2.29,15.28,5.84,22.39,10.65,12.65,8.57,22.74,19.16,30.29,31.75,6.66,12.85,9.94,26.09,9.85,39.73,0,.3.24.54.53.55.09,0,.17-.02.25-.06,16.97-8.32,34.3-13.87,52.01-16.64,1.46-.23,4.99-.56,10.58-.99,11.05-.85,22.43,1.22,32.18,5.8,9.39,4.42,19.61,14.61,15.14,25.7-1.71,4.23-4.67,7.83-8.9,10.8-11.48,8.08-26.21,12.76-39.69,14.21-.91.09-2.15.15-3.71.17-.15,0-.27.12-.27.27,0,.09.05.18.13.23,9.03,5.54,16.98,12.48,23.83,20.81-10.79,7.47-22.44,12.57-34.95,15.3-5.01,1.09-12.36,3.67-9.01,10.65-5.61-1.17-10.96-2.52-16.03-4.06-13.63-4.13-26.03-10.56-37.18-19.29-.15-.11-.36-.1-.48.04l-11.63,13.15-1.49-6.67c-.13-.57-.7-.93-1.27-.8-.26.06-.49.22-.64.44-1.24,1.84-2.38,3.33-3.41,4.48-2.14,2.39-6.99,7.32-14.54,14.81-3.46,3.43-7.81,6.35-10.38,9.33-.19.22-.46.36-.75.37-.01,0-2.07,1.38-6.16,4.14-3.43,2.31-7.78,4.96-13.03,7.93-5.19,2.93-9.79,5.06-13.82,6.39-6.99,2.32-14.21,3.63-21.65,3.93l-.79-.34c-.13-.06-.27-.09-.42-.1-4.39-.17-8.49-.56-12.31-1.17-30.9-4.96-53.27-29.19-60.65-59.2-.12-.48-.6-.77-1.07-.66-.04,0-.08.02-.12.04-8.2,3.21-17.5,2.45-24.95-2.53-8.37-5.59-12.91-13.74-13.62-24.44-.88-13.09,4.15-26.35,15.73-33.2,8.39-4.97,17.19-6.06,26.4-3.28.45.13.92-.11,1.08-.55,2.83-7.92,6.24-15.35,10.23-22.28l4.61-7.8c9.24-14.33,20.8-26.54,34.69-36.63.28-.2.33-.59.13-.87,0,0,0,0,0-.01-5.09-6.67-4.16-14.19-1.45-21.78,4.98-13.91,18.25-23.61,33.41-21.28,9.6,1.47,16.85,6.21,21.76,14.2,3.06,4.99,2.94,9.88,2.44,15.38-.03.31.19.58.49.61l8.04,1ZM282.14,428.79c-8.39-15.35-31.66-10.26-28.38,9.07.1.62.69,1.04,1.31.94.11-.02.23-.06.33-.11,8.67-4.32,17.49-7.42,26.46-9.29.23-.05.37-.27.32-.5,0-.04-.02-.08-.04-.11ZM309.46,501.29c0-4.19-3.39-7.58-7.58-7.58s-7.58,3.39-7.58,7.58h0c0,4.19,3.39,7.58,7.58,7.58h0c4.19,0,7.58-3.39,7.58-7.58ZM279.07,529.33c-2.94,1.69-5.25,3.6-6.93,5.73-2.01,2.53-3.19,5.49-3.55,8.89-1.63,2.39-2.88,4.91-3.76,7.57-6.44,19.43,1.38,44.76,25.17,46.06,16.96.93,33.5-11.85,41.87-25.31,8.12-13.06,9.76-29.63-.16-42.23-5.39-6.83-12.12-10.61-20.21-11.33-8.79-.77-16.84.91-24.73,5.43-2.51,1.44-5.2,2.87-8.07,4.28-.15.07-.23.24-.19.4.05.18.23.35.56.51ZM354.62,571.48l5.14,5.13c.07.08.19.08.27,0,0,0,.01-.02.02-.02,6.11-8.93,11.01-18.47,14.7-28.64,3.22-8.89,4.63-18.08,4.23-27.57-.04-.9-.77-1.61-1.66-1.63-1.91-.05-3.03.86-3.35,2.73-1.63,9.6-4.15,19.02-8.18,27.9-3.69,8.15-6.67,15.21-11.22,21.47-.14.19-.12.46.05.63ZM183.43,557.04l1.52-28.94c.02-.25-.18-.47-.43-.49,0,0,0,0-.01,0l-2.44-.12c-7.82-.41-14.5,5.89-14.93,14.07v.22c-.44,8.18,5.55,15.15,13.37,15.56l2.44.13c.25.01.46-.18.48-.43ZM252.7,556.48c0-4.21-3.41-7.62-7.62-7.62s-7.62,3.41-7.62,7.62,3.41,7.62,7.62,7.62,7.62-3.41,7.62-7.62Z"/>
  <path class="cls-63" d="M205.02,479.79l-4.61,7.8c-5.01-7.23-9.06-12.8-12.15-16.71-4.82-6.12-11.14-11.72-16.08-16.2-12.75-11.56-28.13-20.16-44.53-26.45-4.46-1.71-8.57-2.63-13.52-4.05-1.75-.5-2.76-2.33-2.26-4.08l.04-.13c.52-1.79,2.3-2.9,4.13-2.58,11.51,2.04,22.79,6.3,32.61,11.62,2.99,1.61,7.16,4.07,12.53,7.38,17.47,10.76,32.53,26.34,43.84,43.4Z"/>
  <path class="cls-59" d="M282.14,428.79c.11.2.03.46-.17.57-.03.02-.07.03-.11.04-8.97,1.87-17.79,4.97-26.46,9.29-.56.28-1.25.06-1.53-.5-.05-.1-.09-.21-.11-.33-3.28-19.33,19.99-24.42,28.38-9.07Z"/>
  <path class="cls-66" d="M537.99,432.35c.07.97-.4,2.01-1.41,3.12-.2.22-.35.49-.42.79-2.15,8.79-5.77,16.81-10.87,24.06-2.68,3.8-5.69,6.09-9.31,9.55-1.05,1-2.42,2.15-4.12,3.44-8.62,6.55-18.79,10.88-30.51,12.99-11.83,2.13-23.23,1.36-34.2-2.31-1.27-.42-3.2-1.6-5.78-3.55,22.61-4.06,43.63-11.91,63.07-23.56,3.66-2.19,8.83-5.61,15.51-10.24,6.25-4.34,12.06-9.35,18.04-14.29Z"/>
  <path class="cls-66" d="M662.17,511.83c-.28-.23-.59-.05-.93.54-.11.2-.18.41-.21.63l-.6,5.17c-.99-.53-1.17-1.27-2.39-1.45-2.23-.33-3.3-1.8-3.21-4.4.39-10.23.52-21.39.41-33.49,0-.55.19-1.09.55-1.51,1.5-1.74,3.28-1.96,5.34-.66.56.35.89.97.9,1.63l.14,33.54Z"/>
  <path class="cls-66" d="M413.35,600.71c0,.13,0,.27.01.4-3.35-6.98,4-9.56,9.01-10.65,12.51-2.73,24.16-7.83,34.95-15.3,7.28-4.76,13.57-9.95,18.86-15.56,9.66-10.24,17.87-21.44,24.62-33.6.49-.88,2.14-4.29,4.96-10.23,4.8-10.14,8.54-21.56,10.88-31.95.49-2.18,2.1-3.02,4.81-2.51,1.13.21,1.96,1.17,2,2.32.04,1.17-.18,2.88-.67,5.13-1.8,8.32-4.63,16.98-8.5,25.98-4.46,10.38-9.49,19.76-15.1,28.14-4.8,7.17-11.64,16.07-18.43,22.63-8.18,7.91-16.91,15.59-26.69,20.85-4.37,2.35-7.34,3.91-8.92,4.7-9.84,4.91-20.44,8.13-31.79,9.65Z"/>
  <circle class="cls-60" cx="301.88" cy="501.29" r="7.58"/>
  <path class="cls-54" d="M268.59,543.95c1.33,10.29,10.26,11.2,18.24,8.62.65-.21,1.36-.05,1.85.42,3.12,2.97,6.35,7.19,10.66,9.14.28.12.41.46.29.74-.01.03-.03.06-.05.09-2.31,3.51-5.43,5.65-9.37,6.4-.26.05-.52.08-.79.07-1.23-.02-2.44.05-3.61.21-3.49.48-2.56,5.62,1.04,5.95,6.51.61,11.85-1.66,16.04-6.79,2.59-3.17,5.19-6.22,7.8-9.14,3.77-4.22,5.23-9.22,4.36-15.01-.25-1.72-1.69-3.01-3.43-3.08h-.3c-1.41-.07-2.6,1.04-2.66,2.46,0,.19,0,.37.04.55.69,3.82.08,7.12-1.84,9.89-4.14,5.99-11.12-3.08-13.52-6.13-.53-.68-.66-1.59-.33-2.39,1.75-4.23,2.56-9.61.26-13.42-2.91-4.82-9.28-5.37-14.2-3.2-.33-.16-.51-.33-.56-.51-.04-.16.04-.33.19-.4,2.87-1.41,5.56-2.84,8.07-4.28,7.89-4.52,15.94-6.2,24.73-5.43,8.09.72,14.82,4.5,20.21,11.33,9.92,12.6,8.28,29.17.16,42.23-8.37,13.46-24.91,26.24-41.87,25.31-23.79-1.3-31.61-26.63-25.17-46.06.88-2.66,2.13-5.18,3.76-7.57Z"/>
  <path class="cls-59" d="M354.62,571.48c-.17-.17-.19-.44-.05-.63,4.55-6.26,7.53-13.32,11.22-21.47,4.03-8.88,6.55-18.3,8.18-27.9.32-1.87,1.44-2.78,3.35-2.73.89.02,1.62.73,1.66,1.63.4,9.49-1.01,18.68-4.23,27.57-3.69,10.17-8.59,19.71-14.7,28.64-.06.08-.18.1-.27.04,0,0-.02-.01-.02-.02l-5.14-5.13Z"/>
  <path class="cls-59" d="M183.43,557.04c-.02.25-.23.44-.48.43l-2.44-.13c-7.82-.41-13.81-7.38-13.38-15.56v-.22c.44-8.18,7.12-14.48,14.94-14.07l2.44.12c.25.01.45.22.44.48,0,0,0,0,0,.01l-1.52,28.94Z"/>
  <path class="cls-60" d="M268.59,543.95c.36-3.4,1.54-6.36,3.55-8.89,1.68-2.13,3.99-4.04,6.93-5.73,4.92-2.17,11.29-1.62,14.2,3.2,2.3,3.81,1.49,9.19-.26,13.42-.33.8-.2,1.71.33,2.39,2.4,3.05,9.38,12.12,13.52,6.13,1.92-2.77,2.53-6.07,1.84-9.89-.25-1.4.68-2.73,2.07-2.98.18-.03.37-.05.55-.04h.3c1.74.08,3.18,1.37,3.43,3.09.87,5.79-.59,10.79-4.36,15.01-2.61,2.92-5.21,5.97-7.8,9.14-4.19,5.13-9.53,7.4-16.04,6.79-3.6-.33-4.53-5.47-1.04-5.95,1.17-.16,2.38-.23,3.61-.21.27,0,.53-.02.79-.07,3.94-.75,7.06-2.89,9.37-6.4.17-.26.1-.61-.16-.78-.03-.02-.05-.03-.08-.05-4.31-1.95-7.54-6.17-10.66-9.14-.49-.47-1.2-.63-1.85-.42-7.98,2.58-16.91,1.67-18.24-8.62Z"/>
  <circle class="cls-60" cx="245.08" cy="556.48" r="7.62"/>
  <path class="cls-61" d="M413.36,601.11c0-.13-.01-.27-.01-.4l.45,1.02c-.32,33.52,6.76,65.18,21.23,94.99-17.49,8.53-35.76,12.94-54.79,13.25-10.15.16-19.33-.84-27.54-3.01-8.95-2.37-17.46-5.94-25.55-10.72-3.79-2.24-7.1-4.94-9.91-8.09-4.06-4.54-6.2-9.73-6.43-15.57,14.21,4.89,27.79,8.74,42.81,9.57,1.38.07,2.56-.97,2.66-2.35l.03-.37c.1-1.44-.95-2.7-2.38-2.86-10.38-1.19-20.57-2.58-31.3-5.86-5.93-1.81-10.23-3.73-13.97-8.54-5.62-5.19-7.57-11.82-5.84-19.91,5.21,2.45,9.58,4.11,13.13,4.98,9.06,2.22,19.38,3.01,30.95,2.37,1.48-.08,2.62-1.34,2.55-2.82v-.13c-.08-1.52-1.34-2.71-2.86-2.69-13.7.19-24.03-.26-34.4-3.74-2.75-.93-5.51-2.57-8.28-4.93l.87-5.27c.43-1.13.92-1.96,1.49-2.47l11.02-7.36,1.8-.49c2.09-.05,4.16-.25,6.21-.58,2.79-.46,4.85-.73,6.16-.81,6.74-.43,13.45-.77,20.12-1.01,2.93.14,5.77-.16,8.52-.89.69-.18,1.15-.43,1.38-.75.69-.94.54-2.25-.34-3.01-6.35-5.53-10.74-12.2-13.17-20.02-.07-.63-.04-1.19.07-1.69l11.63-13.15c.12-.14.33-.15.48-.04,11.15,8.73,23.55,15.16,37.18,19.29,5.07,1.54,10.42,2.89,16.03,4.06Z"/>
  <path class="cls-59" d="M348.04,590.95c-.11.5-.14,1.06-.07,1.69-3.73,3.53-7.25,7.22-10.57,11.09-2.89,3.36-6.09,5.98-9.32,9.05-1.91.62-3.57,1.98-4.99,4.07-.16.24-.38.45-.63.61l-3.37,2.25-1.8.49-8.94.54c-.32.02-.61.18-.8.43-1.34,1.82-1.77,3.95-1.28,6.39-.57.51-1.06,1.34-1.49,2.47l-2.01.72c-.51.19-1,.44-1.45.75-8.73,5.98-18.34,9.78-28.83,11.4-4.64.71-8.67.59-12.1-.36-1-.28-1.37-1.05-1.1-2.31l1.61-4.93c7.44-.3,14.66-1.61,21.65-3.93,4.03-1.33,8.63-3.46,13.82-6.39,5.25-2.97,9.6-5.62,13.03-7.93,4.09-2.76,6.15-4.14,6.16-4.14.29-.01.56-.15.75-.37,2.57-2.98,6.92-5.9,10.38-9.33,7.55-7.49,12.4-12.42,14.54-14.81,1.03-1.15,2.17-2.64,3.41-4.48.33-.48.99-.61,1.47-.28.22.15.38.38.44.64l1.49,6.67Z"/>
  <path class="cls-52" d="M351.58,617.31l3.2-2.28c.64-.46.79-1.35.34-1.99-.16-.22-.37-.39-.62-.49-1.81-.74-3.82-1.02-6.02-.84-6.61.53-13.41.89-20.4,1.07,3.23-3.07,6.43-5.69,9.32-9.05,3.32-3.87,6.84-7.56,10.57-11.09,2.43,7.82,6.82,14.49,13.17,20.02.88.76,1.03,2.07.34,3.01-.23.32-.69.57-1.38.75-2.75.73-5.59,1.03-8.52.89Z"/>
  <path class="cls-66" d="M437.15,700.26l-2.12-3.54c-14.47-29.81-21.55-61.47-21.23-94.99,3.59-1.1,6.94.18,6.92,4.42-.15,22.33,4.13,44.7,11.22,65.45,2.85,8.32,6.5,15.54,9.91,23.42.13.3.21.62.24.94.25,3.23-1.4,4.67-4.94,4.3Z"/>
  <path class="cls-68" d="M351.58,617.31c-6.67.24-13.38.58-20.12,1.01-1.31.08-3.37.35-6.16.81-2.05.33-4.12.53-6.21.58l3.37-2.25c.25-.16.47-.37.63-.61,1.42-2.09,3.08-3.45,4.99-4.07,6.99-.18,13.79-.54,20.4-1.07,2.2-.18,4.21.1,6.02.84.73.3,1.07,1.13.77,1.86-.1.25-.27.47-.49.62l-3.2,2.28Z"/>
  <path class="cls-52" d="M317.29,620.2l-11.02,7.36c-.49-2.44-.06-4.57,1.28-6.39.19-.25.48-.41.8-.43l8.94-.54Z"/>
  <path class="cls-51" d="M304.78,630.03l-.87,5.27c-.27-.53-.63-.59-1.08-.19-.37.33-.55.73-.54,1.19.04,1.82-.14,3.56-.55,5.22-.07.28,0,.58.19.81.31.37.61.34.89-.07-1.73,8.09.22,14.72,5.84,19.91-1.63.39-1.81-1.06-3.13-1.2-2.83-.29-4.55,3.25-3.01,5.15,2.18,2.69,4.94,4.85,8.29,6.46.23,5.84,2.37,11.03,6.43,15.57,2.81,3.15,6.12,5.85,9.91,8.09,8.09,4.78,16.6,8.35,25.55,10.72,8.21,2.17,17.39,3.17,27.54,3.01,19.03-.31,37.3-4.72,54.79-13.25l2.12,3.54c1.6,2.81,3.99,4.65,7.18,5.51,2.15.57,4.46,1.02,6.91,1.33-7.28,7.37-13.72,13.04-19.32,17.02-15.79,11.23-33.65,16.56-53.57,16-35.79-1-60.75-27.69-76.4-56.48-.05-.09-.16-.13-.25-.09-.06.03-.1.08-.11.15-2.67,15.47-6.52,29.95-11.55,43.43-1.89,5.04-5.14,10-9.77,14.87-.28.29-.6.54-.95.74-6.66,3.74-13.02,3.52-19.09-.66-14.26-9.83-14.82-31.58-14.07-47.23.51-10.52,1.88-20.4,4.1-29.63,1.78-7.43,3.82-13.9,6.12-19.4.81-1.94,1.78-3.8,2.91-5.59-.27,1.26.1,2.03,1.1,2.31,3.43.95,7.46,1.07,12.1.36,10.49-1.62,20.1-5.42,28.83-11.4.45-.31.94-.56,1.45-.75l2.01-.72ZM301.72,680.96c-.33-2.49-.62-6.77-.86-12.85-.25-6.43-.66-10.93-1.07-17.26-.26-3.98-6.58-6.84-6.75-1.29-.34,11.01,2.89,22.11,7.95,31.63.1.19.34.26.53.16.14-.08.22-.23.2-.39Z"/>
  <path class="cls-56" d="M303.91,635.3c2.77,2.36,5.53,4,8.28,4.93,10.37,3.48,20.7,3.93,34.4,3.74,1.52-.02,2.78,1.17,2.85,2.69v.13c.08,1.48-1.06,2.74-2.54,2.82-11.57.64-21.89-.15-30.95-2.37-3.55-.87-7.92-2.53-13.13-4.98-.28.41-.58.44-.89.07-.19-.23-.26-.53-.19-.81.41-1.66.59-3.4.55-5.22-.01-.46.17-.86.54-1.19.45-.4.81-.34,1.08.19Z"/>
  <path class="cls-59" d="M301.72,680.96c.02.21-.13.41-.34.43-.16.02-.31-.06-.39-.2-5.06-9.52-8.29-20.62-7.95-31.63.17-5.55,6.49-2.69,6.75,1.29.41,6.33.82,10.83,1.07,17.26.24,6.08.53,10.36.86,12.85Z"/>
  <path class="cls-63" d="M158.47,705.07c.22-2.86,1.37-5.27,3.44-7.22,10.32-9.69,22.29-16.81,35.63-23.36,16.7-8.2,33.83-14.43,51.4-18.7.75-.18,1.51.28,1.69,1.03.07.29.04.6-.08.88l-1.61,3.7c-.39.9-1.24,1.52-2.22,1.61-.08,0-5.4,1.61-15.96,4.8-15.07,4.56-29.25,11.55-42.78,19.36-9.03,5.21-17.67,11.54-25.92,18.99-.26.24-.59.39-.94.44-.81.11-1.56-.09-2.23-.6-.29-.22-.45-.57-.42-.93Z"/>
  <path class="cls-56" d="M308.66,662.17c3.74,4.81,8.04,6.73,13.97,8.54,10.73,3.28,20.92,4.67,31.3,5.86,1.43.16,2.48,1.42,2.38,2.86l-.03.37c-.1,1.38-1.28,2.42-2.66,2.35-15.02-.83-28.6-4.68-42.81-9.57-3.35-1.61-6.11-3.77-8.29-6.46-1.54-1.9.18-5.44,3.01-5.15,1.32.14,1.5,1.59,3.13,1.2Z"/>
</svg>